<svg width="400" height="400" viewBox="0 0 400 400" fill="none" xmlns="http://www.w3.org/2000/svg">
<path d="M216.952 140.48C172.84 132.36 83.7679 82.152 73.6959 167.352C67.0959 223.2 149.496 291.912 197.984 301.24C252.536 311.736 312.104 278.368 327.264 223.344C335.344 194.024 326.808 157.6 297.552 142.696C271.808 129.6 243.592 145.376 216.952 140.48Z" fill="#407BFF"/>
<path opacity="0.9" d="M216.952 140.48C172.84 132.36 83.7679 82.152 73.6959 167.352C67.0959 223.2 149.496 291.912 197.984 301.24C252.536 311.736 312.104 278.368 327.264 223.344C335.344 194.024 326.808 157.6 297.552 142.696C271.808 129.6 243.592 145.376 216.952 140.48Z" fill="white"/>
<path d="M200 342.048C285.666 342.048 355.112 337.994 355.112 332.992C355.112 327.991 285.666 323.936 200 323.936C114.334 323.936 44.8882 327.991 44.8882 332.992C44.8882 337.994 114.334 342.048 200 342.048Z" fill="#F5F5F5"/>
<path d="M274.752 218.52C274.685 218.522 274.62 218.499 274.568 218.456C274.538 218.432 274.513 218.402 274.494 218.368C274.475 218.334 274.463 218.296 274.458 218.258C274.454 218.219 274.457 218.18 274.468 218.143C274.478 218.105 274.496 218.07 274.52 218.04C280.232 210.752 279.704 202.488 279.04 192.032C278.808 188.384 278.568 184.608 278.544 180.448C278.504 173.248 281.36 161.608 284.144 150.336C287.6 136.224 291.168 121.624 288.144 118.424C282.776 112.712 264.552 119.36 254.848 126.264C246.896 131.928 240.616 130.824 229.208 128.808C226.224 128.28 222.808 127.688 218.984 127.144C203.784 124.992 202.136 127.376 199.848 130.672C199.408 131.304 198.944 131.96 198.368 132.64C198.341 132.668 198.308 132.691 198.271 132.706C198.235 132.721 198.196 132.729 198.156 132.729C198.117 132.729 198.078 132.721 198.041 132.706C198.005 132.691 197.972 132.668 197.944 132.64C197.891 132.582 197.861 132.507 197.861 132.428C197.861 132.349 197.891 132.274 197.944 132.216C198.459 131.603 198.94 130.962 199.384 130.296C201.784 126.824 203.536 124.312 219.104 126.512C222.96 127.064 226.352 127.656 229.344 128.184C240.592 130.168 246.784 131.264 254.536 125.744C264.64 118.544 282.944 111.952 288.616 117.984C291.816 121.416 288.392 135.52 284.736 150.448C281.992 161.648 279.136 173.296 279.184 180.416C279.184 184.56 279.448 188.32 279.68 191.96C280.352 202.552 280.88 210.912 275.032 218.36C275.005 218.41 274.964 218.451 274.915 218.479C274.865 218.507 274.809 218.521 274.752 218.52Z" fill="#263238"/>
<path d="M199.263 154.241C202.072 151.432 202.072 146.878 199.263 144.07C196.455 141.261 191.901 141.261 189.092 144.07C186.284 146.878 186.284 151.432 189.092 154.241C191.901 157.049 196.455 157.049 199.263 154.241Z" fill="white"/>
<path opacity="0.3" d="M199.263 154.241C202.072 151.432 202.072 146.878 199.263 144.07C196.455 141.261 191.901 141.261 189.092 144.07C186.284 146.878 186.284 151.432 189.092 154.241C191.901 157.049 196.455 157.049 199.263 154.241Z" fill="#407BFF"/>
<path d="M198.928 131.704C198.168 129.451 196.581 127.571 194.488 126.442C192.395 125.313 189.952 125.02 187.652 125.622C185.352 126.224 183.365 127.676 182.094 129.685C180.822 131.695 180.36 134.111 180.8 136.448L184.608 155.512L204.968 150.2L198.928 131.704Z" fill="#407BFF"/>
<path d="M202.4 133.336C202.4 134.391 202.088 135.423 201.501 136.301C200.915 137.178 200.082 137.862 199.106 138.266C198.131 138.67 197.059 138.775 196.023 138.569C194.988 138.364 194.038 137.855 193.291 137.109C192.545 136.363 192.037 135.412 191.831 134.377C191.625 133.342 191.731 132.269 192.135 131.294C192.539 130.319 193.222 129.486 194.1 128.899C194.977 128.313 196.009 128 197.064 128C197.766 127.999 198.46 128.136 199.108 128.404C199.756 128.672 200.344 129.065 200.84 129.561C201.336 130.056 201.729 130.645 201.996 131.293C202.264 131.941 202.402 132.635 202.4 133.336Z" fill="#263238"/>
<path d="M197.064 138.032C196.134 138.032 195.224 137.756 194.45 137.239C193.676 136.721 193.073 135.986 192.718 135.126C192.362 134.266 192.269 133.32 192.451 132.407C192.633 131.495 193.082 130.656 193.741 129.999C194.4 129.341 195.239 128.894 196.152 128.713C197.065 128.533 198.011 128.627 198.87 128.984C199.729 129.342 200.464 129.946 200.979 130.72C201.495 131.495 201.77 132.405 201.768 133.336C201.768 133.953 201.647 134.565 201.41 135.135C201.174 135.705 200.827 136.223 200.39 136.659C199.953 137.095 199.435 137.441 198.864 137.677C198.293 137.912 197.682 138.033 197.064 138.032ZM197.064 129.432C196.292 129.432 195.537 129.661 194.895 130.09C194.253 130.519 193.753 131.129 193.458 131.842C193.162 132.555 193.085 133.34 193.235 134.098C193.386 134.855 193.758 135.55 194.304 136.096C194.85 136.642 195.545 137.014 196.303 137.165C197.06 137.316 197.845 137.238 198.558 136.943C199.272 136.647 199.881 136.147 200.31 135.505C200.739 134.863 200.968 134.108 200.968 133.336C200.968 132.3 200.557 131.307 199.825 130.575C199.093 129.843 198.1 129.432 197.064 129.432Z" fill="#407BFF"/>
<path d="M197.064 134.136C196.871 134.138 196.684 134.071 196.537 133.946C196.39 133.821 196.293 133.647 196.264 133.456C196.248 133.352 196.253 133.246 196.278 133.144C196.303 133.041 196.348 132.945 196.411 132.861C196.473 132.776 196.552 132.704 196.642 132.65C196.732 132.596 196.832 132.56 196.936 132.544L306.176 115.832C306.388 115.8 306.604 115.854 306.777 115.981C306.949 116.109 307.064 116.3 307.096 116.512C307.128 116.724 307.074 116.94 306.947 117.113C306.819 117.285 306.628 117.4 306.416 117.432L197.184 134.12L197.064 134.136Z" fill="#263238"/>
<path d="M261.504 322.152H261.392C261.287 322.138 261.186 322.104 261.095 322.051C261.004 321.998 260.924 321.927 260.86 321.843C260.796 321.759 260.749 321.663 260.722 321.561C260.696 321.459 260.689 321.353 260.704 321.248L290.456 101.056C290.486 100.847 290.597 100.659 290.764 100.532C290.932 100.405 291.143 100.349 291.352 100.376C291.562 100.404 291.752 100.514 291.881 100.682C292.01 100.85 292.067 101.062 292.04 101.272L262.296 321.456C262.271 321.648 262.177 321.825 262.031 321.953C261.885 322.081 261.698 322.152 261.504 322.152Z" fill="#263238"/>
<path d="M292.048 119.304C292.048 119.946 291.858 120.574 291.501 121.108C291.144 121.643 290.637 122.059 290.043 122.305C289.45 122.55 288.797 122.615 288.167 122.489C287.537 122.364 286.958 122.055 286.504 121.601C286.049 121.146 285.74 120.568 285.615 119.938C285.489 119.308 285.554 118.654 285.799 118.061C286.045 117.467 286.462 116.96 286.996 116.603C287.53 116.246 288.158 116.056 288.8 116.056C289.662 116.056 290.488 116.398 291.097 117.007C291.706 117.616 292.048 118.442 292.048 119.304Z" fill="#263238"/>
<path d="M99.2961 327.344H300.704V285.712H99.2961V327.344Z" fill="#407BFF"/>
<path opacity="0.1" d="M99.2961 327.344H300.704V285.712H99.2961V327.344Z" fill="white"/>
<path d="M99.296 267.408H300.704L303.76 236.12C304.178 231.846 303.696 227.533 302.347 223.456C300.997 219.38 298.81 215.631 295.924 212.45C293.039 209.27 289.521 206.728 285.595 204.989C281.669 203.25 277.422 202.352 273.128 202.352H126.872C122.578 202.352 118.331 203.25 114.405 204.989C110.479 206.728 106.961 209.27 104.076 212.45C101.191 215.631 99.003 219.38 97.6535 223.456C96.304 227.533 95.8226 231.846 96.24 236.12L99.296 267.408Z" fill="#407BFF"/>
<path opacity="0.3" d="M99.296 267.408H300.704L303.76 236.12C304.178 231.846 303.696 227.533 302.347 223.456C300.997 219.38 298.81 215.631 295.924 212.45C293.039 209.27 289.521 206.728 285.595 204.989C281.669 203.25 277.422 202.352 273.128 202.352H126.872C122.578 202.352 118.331 203.25 114.405 204.989C110.479 206.728 106.961 209.27 104.076 212.45C101.191 215.631 99.003 219.38 97.6535 223.456C96.304 227.533 95.8226 231.846 96.24 236.12L99.296 267.408Z" fill="black"/>
<path opacity="0.9" d="M99.2961 288.072H300.704V285.712H99.2961V288.072Z" fill="#407BFF"/>
<path d="M99.2961 285.712H300.704V263.736H99.2961V285.712Z" fill="#407BFF"/>
<path opacity="0.2" d="M99.2961 285.712H300.704V263.736H99.2961V285.712Z" fill="black"/>
<path d="M303.52 229.416C300.725 229.416 297.959 229.989 295.394 231.098C292.828 232.207 290.517 233.83 288.602 235.866C286.687 237.902 285.209 240.309 284.26 242.938C283.31 245.567 282.909 248.362 283.08 251.152L287.08 316.664C287.196 318.592 288.044 320.403 289.451 321.726C290.858 323.049 292.717 323.786 294.648 323.784H312.344C314.276 323.784 316.134 323.047 317.542 321.724C318.95 320.402 319.8 318.592 319.92 316.664L323.92 251.152C324.091 248.366 323.691 245.573 322.744 242.947C321.796 240.321 320.322 237.916 318.412 235.881C316.501 233.845 314.195 232.221 311.634 231.11C309.073 229.998 306.312 229.422 303.52 229.416Z" fill="#407BFF"/>
<path opacity="0.1" d="M318.428 257.332C321.887 249.105 318.021 239.631 309.793 236.173C301.566 232.714 292.092 236.58 288.634 244.808C285.175 253.035 289.041 262.509 297.269 265.967C305.496 269.426 314.97 265.56 318.428 257.332Z" fill="white"/>
<path d="M299.8 330.904H307.24L308.4 323.784H298.64L299.8 330.904Z" fill="#263238"/>
<path d="M92.368 330.904H99.808L100.968 323.784H91.208L92.368 330.904Z" fill="#263238"/>
<path d="M96.48 229.416C93.6849 229.416 90.9194 229.989 88.3538 231.098C85.7882 232.207 83.4768 233.83 81.562 235.866C79.6471 237.902 78.1694 240.309 77.2197 242.938C76.2701 245.567 75.8686 248.362 76.04 251.152L80.04 316.664C80.1601 318.592 81.0105 320.402 82.418 321.724C83.8256 323.047 85.6844 323.784 87.616 323.784H105.312C107.243 323.786 109.102 323.049 110.509 321.726C111.916 320.403 112.764 318.592 112.88 316.664L116.88 251.152C117.051 248.366 116.651 245.573 115.704 242.947C114.756 240.321 113.282 237.916 111.372 235.881C109.461 233.845 107.155 232.221 104.594 231.11C102.033 229.998 99.2718 229.422 96.48 229.416Z" fill="#407BFF"/>
<path opacity="0.1" d="M111.373 257.323C114.832 249.095 110.966 239.622 102.738 236.163C94.5106 232.705 85.0372 236.571 81.5787 244.798C78.1201 253.026 81.9861 262.499 90.2137 265.958C98.4412 269.416 107.915 265.55 111.373 257.323Z" fill="white"/>
<path d="M144 182.352C145.08 183.024 146.344 183.776 147.528 184.48C148.712 185.184 149.928 185.904 151.176 186.592C153.616 187.984 156.088 189.296 158.568 190.592C161.048 191.888 163.552 192.992 166.064 194.024C168.487 195.027 170.979 195.856 173.52 196.504L172.528 196.408C174.784 196.488 177.368 196.464 179.896 196.408L187.576 196.208C192.72 196.08 197.912 195.944 203.096 195.992L203.816 201.776C201.272 202.44 198.72 203 196.16 203.536C193.6 204.072 191.04 204.56 188.464 205.016C185.888 205.472 183.288 205.888 180.672 206.232C178.056 206.576 175.448 206.912 172.528 207.032H172.2L171.528 206.92C168.345 206.39 165.213 205.587 162.168 204.52C159.237 203.518 156.358 202.368 153.544 201.072C150.744 199.808 148.04 198.408 145.376 196.944C144.056 196.208 142.736 195.456 141.44 194.664C140.144 193.872 138.888 193.064 137.52 192.168L144 182.352Z" fill="#FFC3BD"/>
<path d="M133.6 184.272C132.328 179.12 139.344 178.76 159.568 188.12L155.12 204.344C155.12 204.344 137.464 200 133.6 184.272Z" fill="#407BFF"/>
<path opacity="0.2" d="M141.72 189.08C140.016 189.08 138.384 190.28 137.024 191.968C142.288 199.744 151.04 203.08 154.056 204.032H154.16L154.384 204.088C151.288 193.504 146.4 189.16 141.72 189.08Z" fill="black"/>
<path d="M222.432 260.08L230.736 258.768L228.552 237.592L220.248 238.904L222.432 260.08Z" fill="#FFC3BD"/>
<path d="M231.112 254L221.208 254.144C221.036 254.153 220.872 254.223 220.748 254.342C220.623 254.461 220.545 254.621 220.528 254.792L219.256 263.04C219.224 263.232 219.233 263.429 219.283 263.617C219.333 263.805 219.422 263.98 219.544 264.132C219.667 264.283 219.82 264.406 219.993 264.494C220.167 264.582 220.357 264.631 220.552 264.64C223.816 264.528 227.28 264.28 231.392 264.224C233.92 264.184 240.152 264.368 243.648 264.32C247.144 264.272 247.424 260.416 245.976 260.088C239.488 258.624 234.64 256.544 232.488 254.488C232.11 254.154 231.616 253.979 231.112 254Z" fill="#263238"/>
<path d="M161.776 236C161.776 236 192.176 200.976 208.088 204.352C226.336 208.232 233.6 247.016 233.6 247.016L219.472 248.616C219.472 248.616 212.088 231.272 203.664 224.92C186.4 252.8 142.232 273.408 136.8 244.64C144.056 241.72 161.776 236 161.776 236Z" fill="#263238"/>
<path d="M234.968 247.264L217.344 250.712L216.016 244.896L234.4 240.92L234.968 247.264Z" fill="#263238"/>
<path d="M201.176 196.152L207.976 194.848L210.816 202.952C210.816 202.952 204.016 205.208 200.712 200.928L201.176 196.152Z" fill="#FFC3BD"/>
<path d="M215.824 196.48L217.576 202.352L210.816 202.952L207.976 194.848L215.824 196.48Z" fill="#FFC3BD"/>
<path d="M124.552 246.72C124.552 246.72 111.304 227.2 104.8 195.744C104.444 193.991 104.471 192.182 104.878 190.44C105.285 188.698 106.063 187.065 107.159 185.651C108.255 184.237 109.642 183.076 111.227 182.247C112.813 181.418 114.558 180.941 116.344 180.848C122.744 180.512 129.496 180.424 134.984 180.448C137.665 180.457 140.27 181.336 142.409 182.954C144.547 184.571 146.102 186.839 146.84 189.416C149.824 199.88 151.704 213.584 163.4 233.04C165.28 236.16 162.976 240.2 159.4 240.808L124.552 246.72Z" fill="#407BFF"/>
<path opacity="0.2" d="M104.632 191.92C109.104 185.68 113.096 184.8 114.232 185.152C124.568 188.416 113.432 216.896 111.752 220.072C108.835 212.116 106.511 203.955 104.8 195.656C104.551 194.427 104.494 193.167 104.632 191.92Z" fill="black"/>
<path opacity="0.2" d="M156.712 249.152C156.432 250.168 157.224 253.472 162.04 257.216C168.576 255.432 175.64 251.88 182.288 247.168C172.536 244.416 158.672 242.072 156.712 249.152Z" fill="black"/>
<path d="M116.264 160.8C118.344 166.464 121.008 176.696 117.784 180.8C121.761 184.25 126.928 186.01 132.184 185.704C138.824 185.488 137.472 182.832 135.296 180.48C128.84 179.384 128.176 173.944 128.48 169.416L116.264 160.8Z" fill="#FFC3BD"/>
<path opacity="0.2" d="M121.24 164.296L128.44 169.384C128.352 170.449 128.352 171.519 128.44 172.584C125.992 173.432 122 171.176 121.304 168.632C121.069 167.198 121.047 165.737 121.24 164.296Z" fill="black"/>
<path d="M129.6 154.576C130.896 157.056 133.344 158.328 135.072 157.432C136.8 156.536 137.144 153.792 135.872 151.312C134.6 148.832 132.128 147.56 130.4 148.464C128.672 149.368 128.288 152.104 129.6 154.576Z" fill="#407BFF"/>
<path d="M127.904 155.456C129.28 158.088 131.904 159.456 133.72 158.488C135.536 157.52 135.92 154.616 134.52 151.984C133.12 149.352 130.52 147.984 128.704 148.952C126.888 149.92 126.528 152.8 127.904 155.456Z" fill="white"/>
<path d="M129.928 153.184L133.216 152.224C133.216 152.224 131 148.616 131.192 145.68C131.384 142.744 131.944 140.488 126.232 140.616C120.52 140.744 117.344 146.4 129.928 153.184Z" fill="#263238"/>
<path d="M111.728 158.192C115.728 164.808 117.712 168.872 123.072 170.744C124.783 171.39 126.639 171.553 128.437 171.215C130.235 170.877 131.905 170.051 133.265 168.828C134.625 167.605 135.622 166.032 136.149 164.28C136.675 162.529 136.709 160.666 136.248 158.896C134.552 152.088 128.312 142.408 120.048 142.84C111.784 143.272 107.744 151.576 111.728 158.192Z" fill="#FFC3BD"/>
<path d="M111.064 151.952C117.32 150.96 128.056 147.2 126.672 139.736C125.736 134.72 117.92 136.264 116.272 138.8C113.707 142.262 110.466 145.166 106.744 147.336C102.936 149.464 101.728 153.44 111.064 151.952Z" fill="#263238"/>
<path d="M114.176 163.376L117.32 162.016C117.32 162.016 114.664 158.712 114.488 155.776C114.312 152.84 114.576 150.528 108.936 151.376C103.296 152.224 100.848 158.264 114.176 163.376Z" fill="#263238"/>
<path d="M113.336 160.104C113.283 160.105 113.231 160.094 113.183 160.074C113.135 160.053 113.092 160.022 113.056 159.984C108.76 155.76 108.096 151.664 108.088 149.584C108.088 147.648 108.616 145.904 109.488 145.024C109.525 144.987 109.569 144.957 109.618 144.937C109.667 144.916 109.719 144.906 109.772 144.906C109.825 144.906 109.877 144.916 109.926 144.937C109.974 144.957 110.019 144.987 110.056 145.024C110.129 145.099 110.17 145.199 110.17 145.304C110.17 145.409 110.129 145.509 110.056 145.584C109.191 146.73 108.776 148.153 108.888 149.584C108.888 151.52 109.528 155.376 113.616 159.4C113.653 159.437 113.683 159.481 113.703 159.53C113.724 159.579 113.734 159.631 113.734 159.684C113.734 159.737 113.724 159.789 113.703 159.838C113.683 159.887 113.653 159.931 113.616 159.968C113.582 160.009 113.539 160.043 113.491 160.066C113.442 160.09 113.39 160.103 113.336 160.104Z" fill="#407BFF"/>
<path d="M111.904 166.528C113.366 167.521 115.15 167.921 116.896 167.648C119.184 167.264 119.296 165.048 117.696 163.456C116.32 162.016 113.464 160.496 111.6 161.696C109.736 162.896 110.112 165.304 111.904 166.528Z" fill="#FFC3BD"/>
<path d="M117.224 161.48C119.096 163.792 119.312 166.72 117.704 168.024C116.096 169.328 113.28 168.512 111.408 166.2C109.536 163.888 109.32 160.968 110.928 159.664C112.536 158.36 115.36 159.2 117.224 161.48Z" fill="white"/>
<path d="M115.752 162.68C117.512 164.848 117.712 167.6 116.2 168.824C114.688 170.048 112.04 169.288 110.28 167.112C108.52 164.936 108.32 162.192 109.832 160.968C111.344 159.744 113.992 160.504 115.752 162.68Z" fill="#407BFF"/>
<path d="M120.864 156.32H120.264C120.374 155.549 120.768 154.847 121.368 154.352C121.521 154.21 121.704 154.105 121.904 154.045C122.104 153.985 122.315 153.973 122.52 154.008C122.694 154.051 122.856 154.133 122.994 154.246C123.132 154.36 123.244 154.502 123.32 154.664L122.784 154.944C122.748 154.859 122.693 154.784 122.624 154.723C122.555 154.662 122.473 154.617 122.384 154.592C122.264 154.579 122.143 154.593 122.03 154.633C121.916 154.673 121.813 154.739 121.728 154.824C121.28 155.211 120.975 155.738 120.864 156.32Z" fill="#263238"/>
<path d="M127.848 152.064C127.782 151.928 127.748 151.779 127.748 151.628C127.748 151.477 127.782 151.328 127.848 151.192C127.942 151.029 128.07 150.888 128.223 150.779C128.376 150.67 128.551 150.595 128.736 150.56C129.039 150.48 129.357 150.48 129.66 150.56C129.963 150.64 130.24 150.797 130.464 151.016L130.048 151.448C129.899 151.299 129.713 151.192 129.509 151.138C129.306 151.085 129.091 151.087 128.888 151.144C128.786 151.158 128.688 151.193 128.601 151.249C128.514 151.304 128.44 151.377 128.384 151.464C128.356 151.523 128.342 151.587 128.342 151.652C128.342 151.717 128.356 151.781 128.384 151.84L127.848 152.064Z" fill="#263238"/>
<path d="M126.6 153.688C126.6 153.688 129.568 156.296 131.8 157.184C131.272 158.568 129.344 158.936 129.344 158.936L126.6 153.688Z" fill="#ED847E"/>
<path d="M127.736 162.688C126.356 163.126 124.86 163.006 123.568 162.352C123.547 162.341 123.529 162.325 123.514 162.306C123.499 162.287 123.489 162.265 123.483 162.242C123.477 162.219 123.475 162.194 123.479 162.171C123.483 162.147 123.491 162.124 123.504 162.104C123.516 162.083 123.533 162.064 123.553 162.049C123.573 162.035 123.595 162.024 123.62 162.019C123.644 162.014 123.669 162.014 123.693 162.019C123.717 162.024 123.74 162.034 123.76 162.048C124.475 162.39 125.256 162.567 126.048 162.567C126.84 162.567 127.622 162.39 128.336 162.048C128.381 162.028 128.431 162.027 128.478 162.043C128.524 162.059 128.562 162.093 128.584 162.136C128.595 162.157 128.602 162.18 128.603 162.203C128.605 162.227 128.602 162.251 128.595 162.273C128.588 162.295 128.576 162.316 128.56 162.334C128.544 162.352 128.525 162.366 128.504 162.376C128.256 162.499 127.999 162.603 127.736 162.688Z" fill="#263238"/>
<path d="M117.824 154.904C117.761 154.916 117.696 154.916 117.632 154.904C117.584 154.896 117.537 154.879 117.495 154.853C117.453 154.827 117.417 154.793 117.389 154.752C117.36 154.712 117.34 154.667 117.33 154.618C117.32 154.57 117.319 154.52 117.328 154.472C117.424 153.907 117.658 153.374 118.01 152.922C118.361 152.47 118.82 152.112 119.344 151.88C119.437 151.844 119.54 151.845 119.632 151.882C119.724 151.919 119.798 151.99 119.84 152.08C119.86 152.124 119.87 152.171 119.87 152.219C119.87 152.267 119.861 152.315 119.842 152.359C119.823 152.403 119.796 152.443 119.761 152.477C119.726 152.51 119.685 152.535 119.64 152.552C119.223 152.739 118.859 153.025 118.58 153.387C118.301 153.748 118.115 154.173 118.04 154.624C118.031 154.685 118.007 154.743 117.969 154.792C117.931 154.841 117.881 154.88 117.824 154.904Z" fill="#263238"/>
<path d="M130.44 149C130.385 149.028 130.325 149.042 130.264 149.042C130.203 149.042 130.142 149.028 130.088 149C129.676 148.773 129.217 148.643 128.747 148.621C128.277 148.599 127.808 148.685 127.376 148.872C127.288 148.919 127.186 148.93 127.091 148.903C126.995 148.876 126.914 148.814 126.864 148.728C126.838 148.688 126.822 148.643 126.814 148.597C126.807 148.55 126.809 148.502 126.821 148.456C126.833 148.41 126.855 148.367 126.884 148.33C126.913 148.293 126.95 148.262 126.992 148.24C127.533 147.995 128.124 147.879 128.718 147.9C129.312 147.921 129.893 148.078 130.416 148.36C130.46 148.38 130.5 148.408 130.533 148.444C130.565 148.48 130.59 148.522 130.606 148.567C130.622 148.613 130.628 148.662 130.624 148.71C130.62 148.758 130.607 148.805 130.584 148.848C130.554 148.913 130.503 148.966 130.44 149Z" fill="#263238"/>
<path d="M220.392 330.536L227.496 326.216L217.464 307.168L210.36 311.488L220.392 330.536Z" fill="#FFC3BD"/>
<path d="M224.608 320.312L216.336 324.448C216.195 324.532 216.09 324.664 216.039 324.821C215.989 324.977 215.998 325.146 216.064 325.296L218.712 333.168C218.76 333.353 218.845 333.525 218.964 333.675C219.082 333.825 219.23 333.948 219.399 334.037C219.568 334.126 219.753 334.178 219.944 334.191C220.134 334.204 220.325 334.177 220.504 334.112C223.136 332.728 224.976 331.568 228.328 329.896C230.392 328.864 236.752 326.008 239.6 324.584C242.448 323.16 240.96 319.608 239.6 319.888C233.616 321.136 228.632 321.224 226 320.264C225.777 320.176 225.539 320.134 225.299 320.142C225.059 320.151 224.824 320.208 224.608 320.312Z" fill="#263238"/>
<path d="M155.368 241.496C155.368 241.496 170.824 243.624 193.336 258.4C208.928 268.64 222.536 310.664 222.536 310.664L210.344 318.992C210.344 318.992 194.848 285.256 181.872 272.8C139.232 262.648 126.672 275.92 124.552 246.728C132.088 244.632 155.368 241.496 155.368 241.496Z" fill="#263238"/>
<path d="M225.464 312.512L209.408 320.568L206.568 315.32L223.216 306.56L225.464 312.512Z" fill="#263238"/>
<path d="M115.456 195.064C113.896 200.112 112.256 205.32 110.888 210.416C110.184 212.968 109.544 215.528 109 218.016C108.744 219.256 108.512 220.488 108.352 221.648C108.191 222.64 108.109 223.643 108.104 224.648C108.104 224.824 108.104 224.928 108.104 224.976C108.104 225.024 108.104 224.976 108.104 224.936C108.104 224.864 108.032 224.76 107.984 224.672C107.936 224.584 107.816 224.368 107.744 224.264C107.456 223.88 107.392 223.896 107.4 223.912C107.488 224.006 107.585 224.091 107.688 224.168C108.571 224.78 109.505 225.315 110.48 225.768C112.696 226.84 115.152 227.872 117.632 228.832C122.6 230.784 127.768 232.592 132.832 234.504L131.552 240.192C125.966 239.611 120.421 238.678 114.952 237.4C112.119 236.76 109.325 235.959 106.584 235C105.004 234.454 103.477 233.763 102.024 232.936C101.547 232.646 101.088 232.328 100.648 231.984C99.9756 231.458 99.3852 230.836 98.896 230.136C98.7123 229.865 98.5466 229.581 98.4 229.288C98.32 229.12 98.24 228.944 98.176 228.784L98.072 228.512C97.928 228.136 97.84 227.816 97.744 227.488C97.6042 226.927 97.5 226.358 97.432 225.784C97.2368 224.049 97.2153 222.299 97.368 220.56C97.488 218.96 97.68 217.512 97.896 216.056C98.336 213.136 98.936 210.344 99.576 207.576C100.881 202.085 102.467 196.664 104.328 191.336L115.456 195.064Z" fill="#FFC3BD"/>
<path d="M113.448 181.352C111.848 181.784 104.592 182.872 99.4399 200.608L116.872 207.408C116.872 207.408 128.944 177.208 113.448 181.352Z" fill="#407BFF"/>
<path d="M132.632 234.32L138.752 237.368L133.152 244.128C133.152 244.128 126.752 240.016 127.92 236.536L130.24 234.6C130.57 234.328 130.971 234.157 131.395 234.107C131.819 234.057 132.249 234.131 132.632 234.32Z" fill="#FFC3BD"/>
<path d="M144.28 243.52L138.168 248.512L133.12 244.128L138.752 237.368L144.28 243.52Z" fill="#FFC3BD"/>
</svg>
