<svg width="400" height="400" viewBox="0 0 400 400" fill="none" xmlns="http://www.w3.org/2000/svg">
<path d="M337.16 117.072C329.896 93.392 312.152 73.872 291.224 60.648C277.552 52 262.128 45.6 245.992 44.336C229.856 43.072 212.952 47.296 200.576 57.736C183.04 72.528 175.728 98.208 155.456 108.936C137.648 118.4 115.2 113.256 96.5276 120.8C80.9276 127.064 69.8476 141.528 63.4716 157.08C54.6076 178.68 53.8716 204.376 65.0716 224.872C76.2716 245.368 113.6 267.72 156 272.128H214.488C249.032 272.616 291.72 248.784 318.84 219.056C347.056 188.112 347.288 150.096 337.16 117.072Z" fill="#ECF2FF"/>
<path d="M123.862 294.509L89.7197 294.164L89.4205 323.722L123.563 324.068L123.862 294.509Z" fill="#072F54"/>
<path d="M109.897 294.368L81.25 294.078L80.9508 323.636L109.597 323.926L109.897 294.368Z" fill="#3362CC"/>
<path d="M92.5358 294.192C92.6318 294.264 90.1357 297.52 86.9357 301.464C83.7357 305.408 81.0957 308.536 80.9997 308.464C80.9037 308.392 83.3997 305.136 86.5998 301.2C89.7998 297.264 92.4478 294.12 92.5358 294.192Z" fill="#FAFAFA"/>
<path d="M100.712 294.304C100.808 294.368 96.4397 300.272 90.9597 307.48C85.4797 314.688 80.9677 320.472 80.8717 320.408C80.7757 320.344 85.1517 314.44 90.6237 307.224C96.0957 300.008 100.624 294.232 100.712 294.304Z" fill="#FAFAFA"/>
<path d="M109.136 294.4C109.224 294.472 104.336 301.104 98.1361 309.216C91.9361 317.328 86.9361 323.848 86.8081 323.776C86.6801 323.704 91.6081 317.072 97.8081 308.96C104.008 300.848 109.04 294.296 109.136 294.4Z" fill="#FAFAFA"/>
<path d="M117.256 294.448C117.344 294.512 112.52 301.136 106.48 309.24C100.44 317.344 95.4724 323.848 95.3764 323.784C95.2804 323.72 100.104 317.088 106.152 308.992C112.2 300.896 117.16 294.4 117.256 294.448Z" fill="#FAFAFA"/>
<path d="M123.64 297.36C123.736 297.432 119.28 303.44 113.696 310.792C108.112 318.144 103.512 324.04 103.424 324C103.336 323.96 107.784 317.92 113.368 310.568C118.952 303.216 123.552 297.288 123.64 297.36Z" fill="#FAFAFA"/>
<path d="M123.528 309.12C123.616 309.192 121.008 312.6 117.696 316.736C114.384 320.872 111.624 324.168 111.536 324.096C111.448 324.024 114.056 320.616 117.368 316.48C120.68 312.344 123.44 309.048 123.528 309.12Z" fill="#FAFAFA"/>
<path opacity="0.3" d="M123.869 294.509L109.894 294.368L109.594 323.926L123.57 324.068L123.869 294.509Z" fill="black"/>
<path d="M94.777 294.223L92.5371 294.2L92.2379 323.759L94.4778 323.781L94.777 294.223Z" fill="#263238"/>
<path d="M117.245 294.442L115.438 294.424L115.138 323.982L116.946 324.001L117.245 294.442Z" fill="#263238"/>
<path d="M123.719 308.692L81.1055 308.261L81.0934 309.453L123.707 309.884L123.719 308.692Z" fill="#263238"/>
<path d="M100.728 294.568C100.684 294.425 100.657 294.277 100.648 294.128C100.607 293.703 100.591 293.275 100.6 292.848C100.653 291.264 101.052 289.71 101.768 288.296C101.999 287.825 102.267 287.373 102.568 286.944C102.869 286.432 103.289 286.001 103.792 285.688C103.954 285.608 104.136 285.575 104.315 285.594C104.495 285.612 104.666 285.681 104.808 285.792C105.067 286.034 105.229 286.36 105.264 286.712C105.316 287.374 105.238 288.04 105.032 288.672C104.661 290.023 104.006 291.281 103.112 292.36C102.639 292.931 102.103 293.447 101.512 293.896C101.35 294.038 101.158 294.142 100.951 294.202C100.743 294.261 100.525 294.274 100.312 294.24C99.9259 294.112 99.5731 293.899 99.2804 293.616L95.9044 290.768C94.8404 289.864 93.6884 288.92 93.2484 287.568C93.1324 287.234 93.0914 286.879 93.1285 286.528C93.1358 286.346 93.1857 286.168 93.2743 286.008C93.3628 285.848 93.4876 285.712 93.6385 285.609C93.7894 285.506 93.9622 285.441 94.1432 285.417C94.3241 285.393 94.5081 285.412 94.6804 285.472C94.9843 285.554 95.2732 285.684 95.5364 285.856C96.4368 286.503 97.2443 287.27 97.9364 288.136C98.9152 289.378 99.6482 290.795 100.096 292.312C100.215 292.722 100.311 293.139 100.384 293.56C100.404 293.706 100.404 293.854 100.384 294C100.384 294 100.248 293.4 99.9044 292.36C99.3986 290.905 98.6404 289.551 97.6644 288.36C96.9944 287.537 96.2168 286.808 95.3525 286.192C94.9045 285.904 94.2804 285.664 93.8564 285.952C93.4324 286.24 93.4164 286.92 93.6164 287.488C94.0084 288.68 95.0964 289.592 96.1684 290.496L99.5364 293.32C99.7826 293.564 100.081 293.75 100.408 293.864C100.562 293.885 100.719 293.871 100.867 293.824C101.015 293.777 101.151 293.698 101.264 293.592C101.831 293.167 102.344 292.675 102.792 292.128C103.657 291.098 104.293 289.895 104.656 288.6C104.853 288.021 104.937 287.41 104.904 286.8C104.887 286.537 104.773 286.289 104.584 286.104C104.495 286.03 104.386 285.984 104.271 285.971C104.156 285.958 104.04 285.979 103.936 286.032C103.487 286.318 103.109 286.704 102.832 287.16C102.537 287.577 102.27 288.012 102.032 288.464C101.316 289.838 100.889 291.343 100.776 292.888C100.688 293.952 100.8 294.568 100.728 294.568Z" fill="#263238"/>
<path d="M121.332 323.851L67.0918 323.308L66.6223 370.26L120.862 370.803L121.332 323.851Z" fill="#072F54"/>
<path d="M98.6083 370.576L53.1123 370.272L53.5843 323.16L99.0883 323.624L98.6083 370.576Z" fill="#3362CC"/>
<path d="M71.52 323.344C71.608 323.416 67.576 328.552 62.512 334.808C57.448 341.064 53.272 346.088 53.184 346.008C53.096 345.928 57.128 340.8 62.192 334.536C67.256 328.272 71.432 323.272 71.52 323.344Z" fill="#FAFAFA"/>
<path d="M84.504 323.512C84.6 323.584 77.616 332.92 68.912 344.368C60.208 355.816 53.08 365.048 52.992 364.984C52.904 364.92 59.88 355.576 68.584 344.12C77.288 332.664 84.416 323.44 84.504 323.512Z" fill="#FAFAFA"/>
<path d="M97.8796 323.608C97.9676 323.68 90.1036 334.184 80.3196 347.064C70.5356 359.944 62.5116 370.344 62.4236 370.264C62.3356 370.184 70.1916 359.696 80.0236 346.808C89.8556 333.92 97.7916 323.544 97.8796 323.608Z" fill="#FAFAFA"/>
<path d="M110.776 323.744C110.872 323.808 103.168 334.296 93.5764 347.168C83.9844 360.04 76.1204 370.4 76.0004 370.344C75.8804 370.288 83.6084 359.792 93.2084 346.92C102.808 334.048 110.688 323.672 110.776 323.744Z" fill="#FAFAFA"/>
<path d="M120.928 328.368C121.024 328.44 113.904 337.968 105.032 349.632C96.1598 361.296 88.8958 370.712 88.7998 370.64C88.7038 370.568 95.8238 361.04 104.696 349.376C113.568 337.712 120.84 328.304 120.928 328.368Z" fill="#FAFAFA"/>
<path d="M120.752 347.048C120.84 347.12 116.648 352.504 111.392 359.048C106.136 365.592 101.792 370.888 101.704 370.816C101.616 370.744 105.8 365.36 111.064 358.816C116.328 352.272 120.656 346.976 120.752 347.048Z" fill="#FAFAFA"/>
<path opacity="0.3" d="M121.285 323.849L99.0859 323.624L98.6107 370.574L120.81 370.798L121.285 323.849Z" fill="#3362CC"/>
<path d="M75.0752 323.381L71.5234 323.345L71.0482 370.295L74.6 370.331L75.0752 323.381Z" fill="#263238"/>
<path d="M110.781 323.742L107.901 323.713L107.426 370.663L110.306 370.692L110.781 323.742Z" fill="#263238"/>
<path d="M121.051 346.376L53.3584 345.69L53.3392 347.586L121.032 348.271L121.051 346.376Z" fill="#263238"/>
<path d="M82.136 322.64L82.328 322.384C82.456 322.208 82.64 321.952 82.864 321.584C83.32 320.888 83.848 319.776 84.592 318.384C84.999 317.595 85.5043 316.861 86.096 316.2C86.798 315.381 87.7518 314.818 88.808 314.6C89.4053 314.495 90.0188 314.531 90.6 314.704C91.2404 314.877 91.804 315.26 92.2 315.792C92.5931 316.371 92.7505 317.077 92.64 317.768C92.5322 318.479 92.2398 319.149 91.792 319.712C90.7445 320.8 89.4528 321.623 88.024 322.112C86.5685 322.858 84.987 323.328 83.36 323.496C82.482 323.544 81.605 323.386 80.8 323.032C79.9616 322.644 79.2732 321.992 78.84 321.176C78.4366 320.334 78.2262 319.413 78.224 318.48C78.2358 316.575 78.5546 314.684 79.168 312.88C79.483 311.897 80.1572 311.068 81.056 310.56C81.5568 310.332 82.1175 310.27 82.656 310.384C83.18 310.502 83.6649 310.752 84.064 311.112C84.8418 311.859 85.2932 312.882 85.32 313.96C85.3604 315.028 85.189 316.093 84.8155 317.094C84.442 318.095 83.8739 319.012 83.144 319.792C82.4128 320.633 81.5055 321.302 80.4866 321.753C79.4676 322.204 78.3619 322.425 77.248 322.4C76.1467 322.328 75.077 322.002 74.1233 321.447C73.1696 320.892 72.3578 320.122 71.752 319.2C71.1364 318.304 70.7593 317.266 70.656 316.184C70.5286 315.101 70.7924 314.009 71.4 313.104C71.7292 312.628 72.2319 312.301 72.8 312.192C73.0772 312.143 73.3615 312.149 73.6362 312.211C73.9109 312.273 74.1706 312.389 74.4 312.552C75.2106 313.2 75.8277 314.058 76.184 315.032C76.5637 315.941 76.8583 316.884 77.064 317.848C77.2934 318.814 77.235 319.827 76.896 320.76C76.7063 321.213 76.4218 321.62 76.0617 321.954C75.7015 322.288 75.274 322.541 74.808 322.696C73.9188 322.974 72.9811 323.061 72.056 322.952C71.1752 322.858 70.3032 322.695 69.448 322.464C68.648 322.256 67.784 322.048 66.976 321.808C66.1831 321.585 65.4033 321.318 64.64 321.008C63.8901 320.718 63.1803 320.334 62.528 319.864C61.8875 319.408 61.3572 318.815 60.976 318.128C60.7879 317.793 60.6704 317.422 60.6305 317.04C60.5906 316.658 60.6292 316.271 60.744 315.904C60.9979 315.227 61.4822 314.66 62.112 314.304C62.7004 313.953 63.3708 313.763 64.056 313.752C65.2893 313.793 66.4877 314.172 67.52 314.848C69.1926 315.85 70.6347 317.194 71.752 318.792C72.4625 319.79 73.0332 320.88 73.448 322.032C73.5978 322.433 73.7155 322.845 73.8 323.264C73.7571 323.165 73.7197 323.063 73.688 322.96C73.624 322.752 73.52 322.456 73.368 322.064C72.215 319.129 70.1182 316.66 67.408 315.048C66.3918 314.385 65.2128 314.014 64 313.976C63.3508 313.969 62.7145 314.157 62.1728 314.515C61.6311 314.873 61.2088 315.384 60.96 315.984C60.86 316.314 60.8283 316.661 60.8668 317.003C60.9053 317.346 61.0132 317.677 61.184 317.976C61.5479 318.613 62.0511 319.16 62.656 319.576C63.9928 320.441 65.4633 321.078 67.008 321.464C67.808 321.696 68.608 321.896 69.464 322.104C70.3043 322.323 71.1601 322.478 72.024 322.568C72.8952 322.673 73.7789 322.591 74.616 322.328C75.0312 322.19 75.412 321.964 75.7322 321.666C76.0525 321.368 76.3048 321.004 76.472 320.6C76.781 319.734 76.831 318.798 76.616 317.904C76.4154 316.979 76.1316 316.074 75.768 315.2C75.4378 314.299 74.868 313.505 74.12 312.904C73.9349 312.771 73.7249 312.677 73.5027 312.628C73.2805 312.578 73.0506 312.574 72.8266 312.615C72.6026 312.656 72.3892 312.741 72.1991 312.867C72.009 312.992 71.846 313.154 71.72 313.344C71.1768 314.173 70.9444 315.168 71.064 316.152C71.1664 317.162 71.5213 318.131 72.096 318.968C72.6628 319.841 73.4248 320.57 74.3217 321.097C75.2186 321.625 76.2259 321.937 77.264 322.008C78.3063 322.021 79.339 321.807 80.2907 321.382C81.2424 320.956 82.0904 320.329 82.776 319.544C83.4675 318.804 84.0064 317.935 84.3619 316.986C84.7174 316.038 84.8826 315.028 84.848 314.016C84.8403 313.536 84.7382 313.062 84.5474 312.621C84.3566 312.181 84.0809 311.782 83.736 311.448C83.4074 311.125 82.9905 310.906 82.5378 310.819C82.0851 310.732 81.6169 310.781 81.192 310.96C80.3838 311.419 79.7804 312.169 79.504 313.056C79.1814 313.937 78.9482 314.848 78.808 315.776C78.512 317.584 78.352 319.488 79.136 321.04C79.5259 321.785 80.15 322.381 80.912 322.736C81.6663 323.07 82.488 323.223 83.312 323.184C84.898 323.02 86.4406 322.567 87.864 321.848C89.2531 321.379 90.5096 320.583 91.528 319.528C91.9678 319.052 92.2456 318.449 92.3218 317.805C92.3979 317.161 92.2685 316.51 91.952 315.944C91.5851 315.493 91.1024 315.15 90.5555 314.953C90.0086 314.756 89.4183 314.711 88.848 314.824C87.8363 315.033 86.9206 315.567 86.24 316.344C85.6562 316.993 85.1488 317.707 84.728 318.472C83.928 319.864 83.416 320.976 82.936 321.672C82.7044 322.022 82.4363 322.347 82.136 322.64Z" fill="#263238"/>
<path d="M137.336 324.552C137.14 324.421 136.967 324.259 136.824 324.072C136.399 323.594 136.017 323.08 135.68 322.536C135.165 321.738 134.736 320.888 134.4 320C134.209 319.477 134.051 318.943 133.928 318.4C133.842 318.096 133.81 317.779 133.832 317.464C133.842 317.285 133.891 317.11 133.976 316.952C134.025 316.86 134.093 316.779 134.176 316.716C134.259 316.652 134.354 316.607 134.456 316.584C134.557 316.56 134.662 316.558 134.764 316.577C134.866 316.597 134.963 316.637 135.048 316.696C135.194 316.793 135.321 316.915 135.424 317.056C135.598 317.311 135.753 317.578 135.888 317.856C136.147 318.354 136.377 318.867 136.576 319.392C136.91 320.282 137.151 321.204 137.296 322.144C137.393 322.777 137.439 323.416 137.432 324.056C137.448 324.29 137.424 324.526 137.36 324.752C137.288 324.752 137.312 323.76 137.008 322.2C136.823 321.287 136.555 320.393 136.208 319.528C136.005 319.023 135.776 318.529 135.52 318.048C135.391 317.797 135.247 317.554 135.088 317.32C134.928 317.096 134.72 316.944 134.544 316.992C134.368 317.04 134.256 317.248 134.232 317.512C134.216 317.782 134.246 318.052 134.32 318.312C134.639 319.757 135.179 321.144 135.92 322.424C136.72 323.768 137.392 324.504 137.336 324.552Z" fill="#E0E0E0"/>
<path d="M137.832 324.544C137.733 324.312 137.671 324.067 137.648 323.816C137.53 323.145 137.477 322.465 137.488 321.784C137.505 320.771 137.642 319.764 137.896 318.784C138.044 318.203 138.234 317.634 138.464 317.08C138.574 316.761 138.742 316.466 138.96 316.208C139.086 316.066 139.238 315.949 139.408 315.864C139.509 315.815 139.62 315.789 139.732 315.789C139.844 315.789 139.955 315.815 140.056 315.864C140.151 315.917 140.234 315.99 140.3 316.076C140.366 316.163 140.414 316.262 140.44 316.368C140.487 316.543 140.509 316.723 140.504 316.904C140.504 317.224 140.504 317.544 140.456 317.856C140.403 318.455 140.301 319.049 140.152 319.632C139.905 320.616 139.528 321.563 139.032 322.448C138.699 323.043 138.308 323.603 137.864 324.12C137.544 324.48 137.344 324.656 137.32 324.64C137.296 324.624 138 323.84 138.768 322.304C139.218 321.426 139.559 320.497 139.784 319.536C139.912 318.97 140.001 318.395 140.048 317.816C140.048 317.52 140.048 317.208 140.088 316.904C140.128 316.6 140.04 316.312 139.864 316.232C139.688 316.152 139.456 316.272 139.272 316.48C139.084 316.7 138.938 316.952 138.84 317.224C138.616 317.762 138.424 318.312 138.264 318.872C138.002 319.823 137.841 320.799 137.784 321.784C137.696 323.488 137.912 324.528 137.832 324.544Z" fill="#E0E0E0"/>
<path d="M145.248 324.568H131.464V370.536H145.248V324.568Z" fill="#3362CC"/>
<path opacity="0.3" d="M145.248 324.568H140.976V370.536H145.248V324.568Z" fill="black"/>
<path d="M136.136 370.848C136.024 370.848 135.928 360.56 135.928 347.864C135.928 335.168 136.024 324.88 136.136 324.88C136.248 324.88 136.344 335.168 136.344 347.864C136.344 360.56 136.256 370.848 136.136 370.848Z" fill="#FAFAFA"/>
<path d="M144.672 345.952C142.443 346.158 140.204 346.227 137.968 346.16C135.731 346.227 133.492 346.158 131.264 345.952C133.492 345.741 135.731 345.672 137.968 345.744C140.204 345.672 142.444 345.741 144.672 345.952Z" fill="#FAFAFA"/>
<path d="M382.856 370.712C382.856 370.824 300.984 370.92 200.008 370.92C99.0315 370.92 17.1436 370.824 17.1436 370.712C17.1436 370.6 98.9995 370.504 200.008 370.504C301.016 370.504 382.856 370.592 382.856 370.712Z" fill="#263238"/>
<path d="M242.728 115.944C241.128 114.64 238.728 114.344 237.512 112.696C236.152 110.872 236.792 108.16 235.664 106.176C234.744 104.576 232.864 103.776 231.576 102.4C229.728 100.456 229.304 97.5999 229.04 94.936C228.4 88.3759 228.192 81.6959 226.248 75.3919C224.304 69.0879 220.272 63.04 214.176 60.528L192.064 61.328C188.944 63.96 187.376 68.048 186.816 72.088C186.256 76.128 186.592 80.232 186.608 84.312C186.624 88.392 186.304 92.5919 184.552 96.312C183.312 98.912 181.408 101.112 180.112 103.728C178.769 106.226 178.246 109.084 178.616 111.896C178.815 113.292 179.335 114.623 180.135 115.784C180.934 116.946 181.991 117.907 183.224 118.592C185.896 119.944 189.12 119.632 191.96 118.704C194.96 117.72 201.376 119.688 203.424 117.288C204.6 115.92 206.896 113.64 208.608 111.36L229.464 150.056C231.424 153.376 236.664 153.384 239.568 150.856C242.472 148.328 243.456 144.216 243.568 140.36C243.68 136.504 243.144 132.616 243.712 128.808C244.048 126.568 244.752 124.384 244.888 122.128C245.024 119.872 244.48 117.376 242.728 115.944Z" fill="#263238"/>
<path d="M237.456 118.6C237.513 118.065 237.48 117.524 237.36 117C236.894 115.591 235.944 114.392 234.68 113.616C233.88 113.072 233.016 112.56 232.096 111.912C231.072 111.247 230.231 110.337 229.648 109.264C229.338 108.663 229.179 107.996 229.184 107.32C229.184 106.616 229.464 105.976 229.52 105.336C229.561 105.02 229.507 104.699 229.364 104.414C229.222 104.129 228.997 103.893 228.72 103.736C228.176 103.36 227.48 103.104 226.88 102.632C225.749 101.709 224.939 100.452 224.568 99.04C224.21 97.7573 224.059 96.4261 224.12 95.096C224.192 92.576 224.504 90.296 224.256 88.472C224.124 86.9969 223.608 85.582 222.76 84.368C222.427 83.9367 222.052 83.5401 221.64 83.184C222.127 83.4519 222.552 83.82 222.888 84.264C223.81 85.479 224.383 86.923 224.544 88.44C224.832 90.344 224.544 92.616 224.544 95.096C224.496 96.3866 224.65 97.6768 225 98.92C225.356 100.257 226.126 101.447 227.2 102.32C227.736 102.752 228.408 102.992 229.024 103.408C229.342 103.621 229.603 103.91 229.784 104.248C229.949 104.594 230.013 104.979 229.968 105.36C229.896 106.088 229.64 106.712 229.624 107.328C229.613 107.939 229.753 108.544 230.032 109.088C230.582 110.108 231.373 110.978 232.336 111.624C233.224 112.272 234.12 112.8 234.888 113.376C236.185 114.2 237.133 115.473 237.552 116.952C237.65 117.355 237.669 117.774 237.608 118.184C237.58 118.33 237.528 118.47 237.456 118.6Z" fill="#455A64"/>
<path d="M224.368 109.6C224.368 109.6 224.296 109.552 224.176 109.424C224.056 109.296 223.888 109.112 223.704 108.84C223.17 108.078 222.75 107.242 222.456 106.36C222.032 105.066 221.785 103.72 221.72 102.36C221.639 100.69 221.677 99.0166 221.832 97.3519C221.968 95.5839 222.096 93.9039 222.088 92.3839C222.099 91.0405 221.968 89.6996 221.696 88.3839C221.402 87.1759 220.964 86.0075 220.392 84.9039C220.617 85.1452 220.81 85.414 220.968 85.7039C221.423 86.512 221.764 87.3788 221.984 88.2799C222.309 89.6129 222.472 90.98 222.472 92.3519C222.472 93.9039 222.384 95.5519 222.248 97.3599C222.091 99.0083 222.043 100.665 222.104 102.32C222.145 103.675 222.357 105.019 222.736 106.32C223.132 107.481 223.681 108.584 224.368 109.6Z" fill="#455A64"/>
<path d="M168.855 221.32L181.847 354.688H195.071L197.487 222.992L168.855 221.32Z" fill="#263238"/>
<path d="M197.424 228.848L230.408 353.048L244.264 348.672L222.248 216.448L197.424 228.848Z" fill="#263238"/>
<path d="M181.423 347L182.447 362.496C182.447 362.496 167.031 367.608 166.943 370.496L197.071 370.72L196.463 346.512L181.423 347Z" fill="#2D56B3"/>
<g opacity="0.6">
<path opacity="0.6" d="M191.719 360.904C192.013 360.981 192.267 361.165 192.432 361.419C192.598 361.674 192.663 361.98 192.615 362.28C192.548 362.576 192.369 362.836 192.116 363.004C191.863 363.172 191.555 363.237 191.255 363.184C190.947 363.098 190.681 362.901 190.508 362.631C190.335 362.361 190.268 362.036 190.319 361.72C190.417 361.416 190.63 361.161 190.913 361.012C191.195 360.862 191.525 360.829 191.831 360.92" fill="white"/>
</g>
<g opacity="0.6">
<path opacity="0.6" d="M197.071 370.712L197.007 368.272L167.911 369.072C167.602 369.23 167.337 369.463 167.14 369.75C166.943 370.036 166.821 370.367 166.783 370.712H197.071Z" fill="white"/>
</g>
<path d="M181.959 362.352C181.959 362.504 182.703 362.544 183.439 363C184.175 363.456 184.583 364.056 184.719 363.992C184.855 363.928 184.607 363.088 183.703 362.552C182.799 362.016 181.919 362.224 181.959 362.352Z" fill="#263238"/>
<path d="M178.84 363.752C178.84 363.896 179.456 364.128 179.976 364.736C180.496 365.344 180.656 366 180.776 365.984C180.896 365.968 180.992 365.144 180.336 364.384C179.68 363.624 178.84 363.616 178.84 363.752Z" fill="#263238"/>
<path d="M177.16 367.592C177.296 367.592 177.48 366.88 177.072 366.08C176.664 365.28 175.976 364.992 175.92 365.112C175.864 365.232 176.296 365.656 176.616 366.312C176.936 366.968 177.016 367.584 177.16 367.592Z" fill="#263238"/>
<path d="M182.111 358.8C182.183 358.928 182.847 358.704 183.711 358.736C184.575 358.768 185.199 359.008 185.311 358.88C185.423 358.752 184.743 358.248 183.759 358.224C182.775 358.2 182.039 358.68 182.111 358.8Z" fill="#263238"/>
<path d="M181.968 355.664C182.464 355.787 182.984 355.77 183.472 355.616C184.025 355.504 184.562 355.324 185.072 355.08C185.366 354.939 185.65 354.775 185.92 354.592C186.089 354.495 186.24 354.371 186.368 354.224C186.466 354.116 186.523 353.977 186.531 353.831C186.538 353.685 186.495 353.541 186.408 353.424C186.331 353.324 186.231 353.243 186.117 353.189C186.003 353.135 185.878 353.109 185.752 353.112C185.561 353.116 185.373 353.148 185.192 353.208C184.872 353.293 184.562 353.409 184.264 353.552C183.761 353.796 183.302 354.12 182.904 354.512C182.224 355.176 182 355.736 182.048 355.76C182.096 355.784 182.448 355.336 183.144 354.784C183.545 354.458 183.989 354.189 184.464 353.984C184.742 353.865 185.028 353.766 185.32 353.688C185.64 353.6 185.912 353.584 185.992 353.728C186.072 353.872 186.032 353.8 185.992 353.896C185.894 354 185.784 354.091 185.664 354.168C185.4 354.344 185.136 354.504 184.864 354.648C184.402 354.889 183.92 355.089 183.424 355.248C182.929 355.35 182.442 355.489 181.968 355.664Z" fill="#263238"/>
<path d="M182.168 355.872C182.441 355.432 182.564 354.916 182.52 354.4C182.527 353.843 182.441 353.288 182.264 352.76C182.157 352.445 182.017 352.142 181.848 351.856C181.762 351.658 181.627 351.486 181.454 351.357C181.281 351.227 181.078 351.146 180.864 351.12C180.73 351.128 180.601 351.174 180.492 351.251C180.383 351.329 180.298 351.436 180.248 351.56C180.176 351.739 180.13 351.928 180.112 352.12C180.059 352.457 180.059 352.799 180.112 353.136C180.217 353.696 180.456 354.223 180.808 354.672C181.416 355.472 182.04 355.592 182.048 355.544C182.056 355.496 181.576 355.2 181.104 354.464C180.83 354.041 180.653 353.563 180.584 353.064C180.54 352.775 180.54 352.481 180.584 352.192C180.624 351.864 180.736 351.608 180.856 351.632C180.976 351.656 181.264 351.864 181.392 352.112C181.551 352.365 181.685 352.633 181.792 352.912C181.977 353.391 182.09 353.896 182.128 354.408C182.224 355.296 182.08 355.856 182.168 355.872Z" fill="#263238"/>
<path d="M243.8 346.216L247.304 364.928L254.336 378.928C254.456 379.167 254.527 379.428 254.542 379.695C254.558 379.963 254.518 380.23 254.426 380.482C254.334 380.733 254.191 380.963 254.006 381.157C253.821 381.35 253.598 381.504 253.352 381.608C253.064 381.728 252.752 381.777 252.442 381.752C252.132 381.727 251.832 381.628 251.568 381.464C248.152 379.336 235.616 371.448 235.44 370.064C235.232 368.464 229.56 350.488 229.56 350.488L243.8 346.216Z" fill="#2D56B3"/>
<g opacity="0.6">
<path opacity="0.6" d="M253.351 381.6L235.199 368.8L235.367 369.6C235.509 370.282 235.889 370.892 236.439 371.32C237.911 372.456 242.039 375.52 251.535 381.48C251.808 381.649 252.119 381.749 252.439 381.772C252.76 381.794 253.081 381.738 253.375 381.608L253.351 381.6Z" fill="white"/>
</g>
<g opacity="0.6">
<path opacity="0.6" d="M237.728 361.992C237.993 362.113 238.205 362.327 238.323 362.594C238.441 362.861 238.457 363.162 238.368 363.44C238.257 363.708 238.048 363.924 237.783 364.043C237.518 364.162 237.218 364.175 236.944 364.08C236.661 363.953 236.437 363.725 236.314 363.441C236.191 363.157 236.179 362.837 236.28 362.544C236.423 362.275 236.665 362.073 236.955 361.981C237.245 361.888 237.56 361.912 237.832 362.048" fill="white"/>
</g>
<path d="M247.375 374.4C247.649 373.694 248.108 373.075 248.703 372.608C249.298 372.14 250.009 371.842 250.759 371.744C250.759 371.696 250.503 371.6 250.055 371.632C249.469 371.692 248.911 371.917 248.447 372.281C247.982 372.645 247.63 373.133 247.431 373.688C247.295 374.08 247.327 374.4 247.375 374.4Z" fill="#263238"/>
<path d="M249.232 376.576C249.336 376.64 249.808 375.912 250.712 375.432C251.289 375.191 251.879 374.983 252.48 374.808C252.155 374.69 251.807 374.652 251.464 374.697C251.122 374.741 250.795 374.867 250.512 375.064C249.48 375.616 249.12 376.552 249.232 376.576Z" fill="#263238"/>
<path d="M244.231 371.688C245.489 370.191 247.158 369.096 249.031 368.536C248.005 368.471 246.99 368.781 246.175 369.408C245.275 369.91 244.585 370.719 244.231 371.688Z" fill="#263238"/>
<path d="M242.695 366.088C242.767 366.192 243.703 365.544 245.031 365.208C246.359 364.872 247.495 364.976 247.511 364.856C246.675 364.61 245.787 364.594 244.942 364.811C244.097 365.028 243.326 365.469 242.711 366.088H242.695Z" fill="#263238"/>
<path d="M241.527 360.616C242.281 360.186 243.088 359.858 243.927 359.64C244.797 359.552 245.675 359.587 246.535 359.744C246.535 359.696 246.303 359.504 245.823 359.352C245.188 359.158 244.515 359.117 243.861 359.231C243.206 359.345 242.588 359.611 242.055 360.008C241.663 360.32 241.487 360.584 241.527 360.616Z" fill="#263238"/>
<path d="M243.687 358.608C243.702 358.365 243.661 358.121 243.567 357.896C243.363 357.265 243.04 356.678 242.615 356.168C242.329 355.783 241.924 355.502 241.463 355.368C241.309 355.343 241.152 355.365 241.01 355.429C240.867 355.492 240.747 355.597 240.663 355.728C240.513 356.001 240.471 356.321 240.543 356.624C240.716 357.242 241.099 357.779 241.627 358.145C242.154 358.51 242.792 358.679 243.431 358.624C244.061 358.556 244.656 358.303 245.141 357.898C245.627 357.492 245.981 356.951 246.159 356.344C246.204 356.19 246.215 356.028 246.191 355.869C246.168 355.71 246.111 355.559 246.023 355.424C245.918 355.302 245.779 355.215 245.623 355.173C245.468 355.132 245.303 355.138 245.151 355.192C244.716 355.389 244.34 355.698 244.063 356.088C243.641 356.599 243.314 357.182 243.095 357.808C242.994 358.029 242.942 358.269 242.943 358.512C243.278 357.705 243.731 356.953 244.287 356.28C244.544 355.954 244.876 355.696 245.255 355.528C245.336 355.492 245.427 355.484 245.512 355.506C245.598 355.528 245.674 355.578 245.727 355.648C245.78 355.739 245.812 355.841 245.821 355.946C245.831 356.051 245.818 356.156 245.783 356.256C245.614 356.778 245.297 357.24 244.871 357.586C244.446 357.933 243.929 358.148 243.383 358.208C242.844 358.252 242.305 358.112 241.855 357.812C241.405 357.511 241.069 357.067 240.903 356.552C240.847 356.339 240.866 356.112 240.959 355.912C241.005 355.836 241.074 355.775 241.156 355.74C241.237 355.704 241.328 355.694 241.415 355.712C241.808 355.836 242.151 356.08 242.399 356.408C242.951 357.063 243.386 357.807 243.687 358.608Z" fill="#263238"/>
<path d="M226.504 189.768L228.952 191.112C228.952 191.112 239.248 165.024 239.2 160.976C239.128 155.136 233.928 124.744 232.88 118.576C231.944 113.04 227.664 110.712 224.504 109.736C218.552 106.648 208.44 102.696 198 104.44C198 104.44 181.104 107.808 175.64 117.24L159.52 158.008C159.044 159.209 158.908 160.519 159.128 161.792L162.192 183.064H174.752V160.576L180.8 150.088L181.16 164.808C181.16 164.808 168.832 203.112 166.512 226.136C163.376 257.184 163.816 274.2 164.96 273.416L239.2 274.832C239.2 274.832 233.52 229.104 232.224 217.464C231.288 209.016 228.968 198.912 226.504 189.768ZM218.592 164L221.032 153.024L221.768 160.984L220.272 168.984C219.248 165.848 218.592 164 218.592 164Z" fill="#407BFF"/>
<path d="M195.999 258.352C195.887 258.352 193.959 250.136 191.703 239.952C189.447 229.768 187.703 221.48 187.807 221.456C187.911 221.432 189.847 229.664 192.111 239.856C194.375 250.048 196.087 258.328 195.999 258.352Z" fill="#263238"/>
<path d="M208.383 253.768C208.294 253.668 208.216 253.558 208.151 253.44L207.543 252.464C207.023 251.608 206.303 250.352 205.431 248.792C203.679 245.672 201.375 241.296 199.031 236.36C196.687 231.424 194.807 226.856 193.519 223.52C192.871 221.848 192.367 220.488 192.039 219.52C191.895 219.088 191.767 218.72 191.671 218.432C191.617 218.307 191.582 218.175 191.567 218.04C191.646 218.15 191.708 218.272 191.751 218.4L192.191 219.464L193.791 223.384C195.151 226.688 197.087 231.224 199.391 236.184C201.695 241.144 203.975 245.504 205.655 248.656L207.655 252.384L208.191 253.4C208.343 253.64 208.399 253.76 208.383 253.768Z" fill="#263238"/>
<path d="M228.951 191.112L228.743 191.008L228.151 190.664L225.895 189.32L217.599 184.296L217.511 184.24V184.144C218.575 178 219.967 169.92 221.511 160.944V160.992C221.407 159.176 221.279 157.264 221.127 155.328C220.679 149.488 220.191 143.912 219.295 138.928C219.183 138.304 219.039 137.704 218.903 137.104C218.767 136.504 218.575 135.936 218.375 135.36C218.037 134.232 217.785 133.079 217.623 131.912C217.36 129.817 217.352 127.697 217.599 125.6C217.732 123.855 218.208 122.153 218.999 120.592C219.588 119.415 220.404 118.365 221.399 117.504C222.034 116.964 222.757 116.537 223.535 116.24C223.736 116.161 223.941 116.097 224.151 116.048C224.221 116.022 224.293 116.006 224.367 116C223.321 116.344 222.351 116.887 221.511 117.6C219.306 119.692 218.003 122.562 217.879 125.6C217.669 127.672 217.712 129.762 218.007 131.824C218.184 132.971 218.452 134.103 218.807 135.208C218.999 135.768 219.167 136.368 219.343 136.968C219.519 137.568 219.639 138.192 219.751 138.816C220.644 144.272 221.261 149.77 221.599 155.288C221.751 157.232 221.879 159.144 221.975 160.96V161.008C220.375 169.984 218.943 178.056 217.855 184.208L217.783 184.056L225.991 189.2L228.207 190.608L228.775 190.984L228.951 191.112Z" fill="#263238"/>
<path d="M182 165.024C180.4 149.824 178.48 133.96 180.544 119.912L182 165.024Z" fill="#455A64"/>
<path d="M180.544 119.912C180.563 120.063 180.563 120.217 180.544 120.368C180.544 120.72 180.472 121.168 180.416 121.68C180.36 122.192 180.28 122.944 180.224 123.76C180.168 124.576 180.08 125.488 180.032 126.512C179.904 128.552 179.864 130.984 179.856 133.712C179.848 136.44 179.976 139.384 180.16 142.512C180.52 148.744 181.096 154.376 181.472 158.448C181.656 160.448 181.8 162.08 181.912 163.248C181.912 163.784 181.984 164.216 182.008 164.568C182.031 164.719 182.031 164.873 182.008 165.024C181.962 164.878 181.933 164.728 181.92 164.576C181.872 164.232 181.816 163.776 181.744 163.264C181.6 162.072 181.408 160.44 181.168 158.464C180.712 154.392 180.104 148.768 179.736 142.52C179.552 139.4 179.464 136.416 179.464 133.72C179.464 131.024 179.56 128.568 179.736 126.52C179.792 125.496 179.896 124.576 179.984 123.768C180.072 122.96 180.152 122.264 180.248 121.696C180.344 121.128 180.4 120.736 180.456 120.392C180.46 120.228 180.49 120.067 180.544 119.912Z" fill="#263238"/>
<path d="M168.48 152.8C168.941 152.896 169.375 153.093 169.752 153.376C171.695 154.596 173.141 156.468 173.832 158.656C174.005 159.093 174.084 159.562 174.064 160.032C173.131 157.033 171.141 154.474 168.464 152.832L168.48 152.8Z" fill="#263238"/>
<path d="M172.8 152.752C173.705 153.675 174.358 154.816 174.696 156.064C175.033 157.312 175.044 158.626 174.728 159.88C174.698 158.635 174.553 157.395 174.296 156.176C173.902 154.992 173.401 153.846 172.8 152.752Z" fill="#263238"/>
<path d="M214.919 162.672C214.555 162.567 214.202 162.427 213.863 162.256L211.023 161.04C208.623 160.024 205.279 158.704 201.511 157.44C197.743 156.176 194.263 155.24 191.735 154.616L188.735 153.888C188.364 153.82 188 153.718 187.647 153.584C188.025 153.594 188.4 153.642 188.767 153.728C189.487 153.848 190.527 154.048 191.807 154.328C195.131 155.06 198.413 155.968 201.639 157.048C204.87 158.133 208.043 159.385 211.143 160.8C212.335 161.336 213.287 161.8 213.935 162.136C214.28 162.282 214.61 162.462 214.919 162.672Z" fill="#263238"/>
<path d="M211.934 190.199L183.145 185.255L178.865 210.179L207.654 215.123L211.934 190.199Z" fill="#072F54"/>
<path d="M200.18 186.621L176.125 182.578L171.952 207.406L196.007 211.449L200.18 186.621Z" fill="#072F54"/>
<path d="M185.599 184.168C183.805 186.061 181.914 187.861 179.935 189.56C178.045 191.358 176.061 193.053 173.991 194.64C175.781 192.742 177.672 190.942 179.655 189.248C181.543 187.448 183.527 185.752 185.599 184.168Z" fill="#FAFAFA"/>
<path d="M192.471 185.344C192.551 185.424 188.103 189.816 182.543 195.152C176.983 200.488 172.399 204.752 172.319 204.672C172.239 204.592 176.687 200.192 182.255 194.856C187.823 189.52 192.391 185.256 192.471 185.344Z" fill="#FAFAFA"/>
<path d="M199.551 186.512C199.631 186.592 194.615 191.528 188.351 197.536C182.087 203.544 176.943 208.344 176.863 208.256C176.783 208.168 181.799 203.24 188.063 197.232C194.327 191.224 199.471 186.4 199.551 186.512Z" fill="#FAFAFA"/>
<path d="M206.4 187.656C206.48 187.736 201.6 192.68 195.4 198.696C189.2 204.712 184.2 209.52 184.112 209.432C184.024 209.344 188.952 204.408 195.112 198.392C201.272 192.376 206.288 187.576 206.4 187.656Z" fill="#FAFAFA"/>
<path d="M211.36 190.952C211.44 191.04 206.904 195.52 201.232 200.96C195.56 206.4 190.896 210.744 190.832 210.656C190.768 210.568 195.288 206.096 200.96 200.656C206.632 195.216 211.28 190.872 211.36 190.952Z" fill="#FAFAFA"/>
<path d="M209.704 200.8C207.835 202.784 205.867 204.671 203.808 206.456C200.472 209.504 197.704 211.896 197.632 211.816C199.496 209.826 201.465 207.935 203.528 206.152C205.494 204.264 207.555 202.477 209.704 200.8Z" fill="#FAFAFA"/>
<path d="M219.071 185.328L215.023 195.496C214.277 195.347 213.509 195.355 212.766 195.521C212.023 195.686 211.324 196.005 210.711 196.456C208.791 197.992 206.135 199.104 205.719 200.584C205.455 201.536 206.175 202.264 207.711 201.496C209.247 200.728 211.495 200.872 212.167 201.344C212.839 201.816 210.151 207.784 210.151 207.784L203.175 208.456C202.84 208.506 202.519 208.624 202.232 208.803C201.944 208.982 201.696 209.218 201.503 209.496C201.159 210.024 200.999 210.704 202.303 211.2L208.743 211.576L202.399 212.512C202.399 212.512 202.519 214.008 203.471 214.2C204.423 214.392 208.503 213.728 208.503 213.728C208.513 213.863 208.55 213.995 208.613 214.115C208.675 214.236 208.761 214.342 208.866 214.428C208.971 214.514 209.092 214.578 209.222 214.616C209.352 214.654 209.489 214.665 209.623 214.648C211.551 214.648 214.143 212.864 214.143 212.864L218.375 207.664L221.575 200.392L227.047 190.168L219.071 185.328Z" fill="#FFBE9D"/>
<path d="M214.6 206.464C214.648 206.912 214.576 207.365 214.392 207.776C214.032 208.804 213.392 209.711 212.544 210.394C211.695 211.077 210.673 211.508 209.592 211.64C209.15 211.732 208.691 211.704 208.264 211.56C208.264 211.496 208.768 211.512 209.544 211.352C210.545 211.142 211.484 210.704 212.288 210.072C213.079 209.427 213.706 208.605 214.12 207.672C214.44 206.952 214.536 206.456 214.6 206.464Z" fill="#EB996E"/>
<path d="M213.215 212C212.612 212.702 211.837 213.236 210.967 213.551C210.097 213.867 209.16 213.952 208.247 213.8C208.247 213.672 209.455 213.672 210.823 213.16C212.191 212.648 213.135 211.872 213.215 212Z" fill="#EB996E"/>
<path d="M173.103 183.064L173.351 187.44C173.351 187.44 177.455 190.856 177.783 192.056C178.111 193.256 178.583 198.224 178.583 198.224C178.583 198.224 177.719 199.144 177.423 199.024C177.127 198.904 181.367 203.992 180.823 205.256C180.279 206.52 180.199 206.688 179.415 206.096C178.631 205.504 173.127 198.816 173.127 198.816L173.927 202.488C173.927 202.488 178.175 207.08 177.871 208.368C177.567 209.656 176.951 209.704 176.951 209.704C176.951 209.704 175.583 210.36 174.935 210.088C174.287 209.816 168.815 204.216 168.815 204.216L165.799 190.208L163.855 183.048L173.103 183.064Z" fill="#FFBE9D"/>
<path d="M169.928 198.56C169.822 199.205 169.785 199.859 169.816 200.512C170.05 202.071 170.725 203.531 171.76 204.72C172.96 206.136 174.264 207.248 175.104 208.16C175.604 208.62 176.024 209.161 176.344 209.76C176.296 209.8 175.8 209.224 174.896 208.392C173.678 207.333 172.524 206.203 171.44 205.008C170.345 203.767 169.675 202.208 169.528 200.56C169.497 200.061 169.554 199.56 169.696 199.08C169.808 198.72 169.904 198.552 169.928 198.56Z" fill="#EB996E"/>
<path d="M173 192.904C173 192.856 173.448 192.992 174.008 193.432C174.727 194.037 175.25 194.842 175.512 195.744C175.904 196.939 176.379 198.104 176.936 199.232C176.936 199.232 176.584 198.96 176.2 198.368C175.723 197.59 175.357 196.75 175.112 195.872C174.871 195.035 174.423 194.273 173.808 193.656C173.336 193.184 172.968 192.96 173 192.904Z" fill="#EB996E"/>
<path d="M191.855 61.168C193.14 59.6423 194.728 58.4011 196.518 57.5237C198.309 56.6462 200.263 56.1518 202.255 56.072C207.855 55.568 213.871 56.984 218.079 60.672C221.935 64.056 223.815 69.288 224.047 74.416C224.135 76.224 223.455 77.904 222.823 79.6C221.885 81.5461 220.318 83.1188 218.375 84.064C216.711 84.776 216.087 84.184 214.823 82.88C214.115 82.0263 213.592 81.0346 213.287 79.968C211.687 75.576 209.783 71.168 206.775 67.608C203.767 64.048 199.479 61.288 194.775 61.064" fill="#072F54"/>
<path d="M188.903 70.9599C188.583 69.2106 188.683 67.4101 189.196 65.7073C189.71 64.0045 190.621 62.4485 191.855 61.1679C193.803 59.3135 196.226 58.0342 198.855 57.4719C202.35 56.5194 206.065 56.802 209.375 58.2719C212.575 59.8719 215.135 63.0719 215.319 66.6319C215.399 68.2319 215.023 69.9359 215.463 71.5039C215.769 72.1432 215.875 72.8596 215.767 73.5599C215.642 73.8601 215.432 74.1177 215.164 74.3021C214.896 74.4865 214.581 74.5899 214.255 74.5999C213.605 74.6052 212.965 74.4397 212.399 74.1199C210.466 73.041 208.723 71.6518 207.239 70.0079" fill="#263238"/>
<path d="M188.8 72.6879C189.376 67.6559 193.048 61.6399 198.048 62.4319L213.544 67.2319C214.276 67.3557 214.934 67.7501 215.389 68.3369C215.844 68.9237 216.062 69.6601 216 70.3999L212.336 108.176L208.184 112.624C207.303 113.582 206.197 114.305 204.966 114.728C203.735 115.151 202.418 115.26 201.134 115.046C199.851 114.831 198.641 114.3 197.614 113.5C196.588 112.7 195.777 111.656 195.256 110.464C195.119 110.169 195.025 109.857 194.976 109.536C194.931 109.271 194.904 109.004 194.896 108.736C194.78 107 194.847 105.257 195.096 103.536C195.216 100.472 195.28 99.2159 195.28 99.2479C195.28 99.2799 188.88 97.8399 187.992 89.3599C187.544 85.1199 188.112 78.2719 188.8 72.6879Z" fill="#FFBE9D"/>
<path d="M190.943 78.448C190.923 78.7299 191.015 79.0082 191.2 79.2225C191.384 79.4367 191.645 79.5695 191.927 79.592C192.063 79.6099 192.202 79.6003 192.334 79.5639C192.467 79.5275 192.591 79.465 192.699 79.38C192.807 79.2951 192.897 79.1894 192.964 79.0692C193.03 78.949 193.072 78.8167 193.087 78.68C193.103 78.3991 193.009 78.123 192.826 77.9097C192.642 77.6964 192.383 77.5625 192.103 77.536C191.967 77.517 191.828 77.5258 191.695 77.5617C191.562 77.5977 191.437 77.6601 191.329 77.7452C191.221 77.8304 191.131 77.9365 191.064 78.0573C190.998 78.178 190.957 78.3109 190.943 78.448Z" fill="#263238"/>
<path d="M190.055 76.328C190.183 76.48 191.031 75.92 192.191 75.984C193.351 76.048 194.175 76.672 194.311 76.536C194.447 76.4 194.247 76.216 193.895 75.92C193.408 75.5475 192.82 75.3326 192.207 75.304C191.605 75.2702 191.008 75.43 190.503 75.76C190.127 76 189.991 76.264 190.055 76.328Z" fill="#263238"/>
<path d="M202.352 79.48C202.334 79.7614 202.427 80.0386 202.611 80.2523C202.795 80.4661 203.055 80.5995 203.336 80.624C203.472 80.6419 203.611 80.6324 203.744 80.5961C203.877 80.5598 204.002 80.4973 204.111 80.4125C204.219 80.3276 204.31 80.222 204.378 80.1017C204.445 79.9815 204.488 79.849 204.504 79.712C204.519 79.4311 204.426 79.155 204.242 78.9417C204.059 78.7284 203.8 78.5944 203.52 78.568C203.383 78.5501 203.244 78.5596 203.111 78.5959C202.978 78.6322 202.854 78.6946 202.745 78.7795C202.636 78.8644 202.545 78.97 202.478 79.0903C202.41 79.2105 202.368 79.343 202.352 79.48Z" fill="#263238"/>
<path d="M201.455 77.144C201.583 77.296 202.431 76.728 203.599 76.792C204.767 76.856 205.575 77.488 205.711 77.352C205.847 77.216 205.655 77.032 205.295 76.736C204.811 76.3645 204.225 76.1496 203.615 76.12C203.011 76.0855 202.411 76.2453 201.903 76.576C201.535 76.8 201.399 77.08 201.455 77.144Z" fill="#263238"/>
<path d="M196.799 85.536C196.199 85.3111 195.573 85.1632 194.935 85.096C194.639 85.048 194.359 84.976 194.319 84.768C194.314 84.4618 194.401 84.161 194.567 83.904L195.559 81.688C196.943 78.544 197.959 75.944 197.839 75.888C197.719 75.832 196.487 78.344 195.103 81.488L194.143 83.712C193.935 84.0604 193.858 84.4719 193.927 84.872C193.964 84.9788 194.025 85.0756 194.105 85.1547C194.186 85.2339 194.284 85.2932 194.391 85.328C194.552 85.3794 194.719 85.4116 194.887 85.424C195.517 85.5424 196.16 85.58 196.799 85.536Z" fill="#263238"/>
<path d="M195.272 99.1999C199.229 99.4741 203.184 98.6431 206.696 96.7999C206.696 96.7999 203.56 102.48 195.176 101.248L195.272 99.1999Z" fill="#EB996E"/>
<path d="M197.135 88.36C197.371 88.0934 197.672 87.8911 198.007 87.7722C198.343 87.6533 198.704 87.6215 199.055 87.68C199.312 87.7195 199.557 87.8108 199.777 87.9484C199.998 88.0859 200.187 88.2668 200.335 88.48C200.478 88.6842 200.554 88.9271 200.554 89.176C200.554 89.425 200.478 89.6679 200.335 89.872C200.137 90.0697 199.884 90.2041 199.609 90.2583C199.334 90.3124 199.05 90.2838 198.791 90.176C198.251 89.9543 197.761 89.6249 197.351 89.208C197.225 89.1096 197.119 88.9873 197.039 88.848C196.996 88.7843 196.973 88.7091 196.973 88.632C196.973 88.555 196.996 88.4797 197.039 88.416" fill="#EB996E"/>
<path d="M200.167 86.5199C199.983 86.5199 199.911 87.7599 198.783 88.5919C197.655 89.4239 196.327 89.2239 196.311 89.3919C196.295 89.5599 196.591 89.6479 197.159 89.6959C197.896 89.7446 198.627 89.5322 199.223 89.0959C199.795 88.6761 200.182 88.051 200.303 87.3519C200.375 86.8319 200.255 86.5119 200.167 86.5199Z" fill="#263238"/>
<path d="M201.447 73.6C201.543 73.92 202.711 73.832 204.063 74.072C205.415 74.312 206.463 74.736 206.695 74.464C206.783 74.328 206.607 74.024 206.183 73.664C205.613 73.2482 204.952 72.974 204.255 72.864C203.564 72.7418 202.853 72.7885 202.183 73C201.671 73.24 201.407 73.472 201.447 73.6Z" fill="#263238"/>
<path d="M190.664 71.272C190.848 71.544 191.664 71.272 192.632 71.352C193.6 71.432 194.392 71.624 194.6 71.352C194.688 71.224 194.6 70.952 194.232 70.688C193.766 70.3509 193.206 70.169 192.632 70.168C192.065 70.153 191.508 70.3091 191.032 70.616C190.704 70.872 190.576 71.136 190.664 71.272Z" fill="#263238"/>
<path d="M212.872 84.336C212.872 83.704 213.712 82.272 214.336 82.208C216 82.032 218.968 82.32 218.776 86.52C218.512 92.256 212.808 90.808 212.808 90.648C212.808 90.488 212.752 86.496 212.872 84.336Z" fill="#FFBE9D"/>
<path d="M214.656 88.552C214.656 88.552 214.752 88.624 214.92 88.712C215.153 88.8209 215.418 88.838 215.664 88.76C216.046 88.5422 216.363 88.2266 216.582 87.8455C216.802 87.4644 216.915 87.0317 216.912 86.592C216.951 86.1017 216.877 85.609 216.696 85.152C216.652 84.9704 216.564 84.8023 216.44 84.6628C216.316 84.5233 216.159 84.4165 215.984 84.352C215.87 84.3164 215.748 84.3208 215.637 84.3645C215.527 84.4082 215.434 84.4885 215.376 84.592C215.296 84.752 215.328 84.872 215.296 84.88C215.264 84.888 215.176 84.776 215.232 84.544C215.27 84.4029 215.354 84.2789 215.472 84.192C215.637 84.0842 215.837 84.0415 216.032 84.072C216.266 84.128 216.482 84.2437 216.659 84.4076C216.835 84.5716 216.966 84.7784 217.04 85.008C217.257 85.5119 217.35 86.0606 217.312 86.608C217.224 87.76 216.584 88.816 215.712 89.008C215.556 89.0466 215.394 89.0494 215.238 89.0161C215.081 88.9828 214.934 88.9144 214.808 88.816C214.664 88.688 214.64 88.56 214.656 88.552Z" fill="#EB996E"/>
<path d="M197.271 61.4C197.431 62.8082 197.968 64.147 198.828 65.274C199.687 66.4009 200.836 67.2739 202.151 67.8C203.551 68.336 205.271 68.6 206.039 69.872C206.807 71.144 206.175 72.992 206.895 74.352C207.895 76.232 210.967 76.36 211.695 78.352C211.999 79.232 211.735 80.232 212.063 81.104C212.324 81.6676 212.775 82.1219 213.336 82.3879C213.897 82.6539 214.534 82.7148 215.135 82.56C215.729 82.3779 216.277 82.069 216.739 81.6546C217.202 81.2403 217.569 80.7303 217.815 80.16C218.297 79.0174 218.592 77.8044 218.687 76.568C219.093 74.1612 219.066 71.7013 218.607 69.304C217.407 64.344 210.855 57.128 205.751 57.12" fill="#263238"/>
<path d="M206.904 59.624C205.167 59.7021 203.455 60.0698 201.84 60.712C200.269 61.4759 198.836 62.4951 197.6 63.728C197.83 63.2565 198.147 62.833 198.536 62.48C200.331 60.6497 202.758 59.5739 205.32 59.472C205.852 59.4122 206.392 59.464 206.904 59.624Z" fill="#455A64"/>
<path d="M200.528 58.912C199.722 59.4559 199.005 60.1195 198.4 60.88C197.9 61.716 197.535 62.6259 197.32 63.576C197.264 63.576 197.192 63.232 197.264 62.68C197.366 61.9512 197.636 61.2561 198.052 60.6494C198.469 60.0427 199.02 59.5411 199.664 59.184C200.168 58.928 200.512 58.872 200.528 58.912Z" fill="#455A64"/>
<path d="M217.306 103.01L173.62 95.4015L171.675 106.569L215.361 114.178L217.306 103.01Z" fill="#072F54"/>
<path opacity="0.3" d="M217.302 103.002L185.895 97.5319L183.949 108.7L215.357 114.17L217.302 103.002Z" fill="black"/>
<path d="M229.702 116.674L185.346 108.949L179.484 142.602L223.841 150.328L229.702 116.674Z" fill="#072F54"/>
<path d="M207.526 112.815L163.17 105.089L157.309 138.742L201.665 146.468L207.526 112.815Z" fill="#072F54"/>
<path opacity="0.3" d="M207.526 112.815L163.17 105.089L157.309 138.742L201.665 146.468L207.526 112.815Z" fill="white"/>
<path d="M189.776 109.72C189.584 110.081 189.356 110.421 189.096 110.736C188.451 111.658 187.613 112.428 186.64 112.992C185.934 113.354 185.144 113.522 184.352 113.48C183.46 113.413 182.585 113.206 181.76 112.864C180.888 112.536 180.008 112.12 179.072 111.776C178.142 111.381 177.137 111.198 176.128 111.24C175.125 111.35 174.168 111.72 173.352 112.312C172.552 112.856 171.752 113.448 170.952 113.912C169.472 114.715 167.789 115.065 166.112 114.92C164.995 114.836 163.907 114.529 162.912 114.016C162.634 113.878 162.366 113.721 162.112 113.544C161.944 113.416 161.864 113.352 161.872 113.336C161.88 113.32 162.248 113.552 162.952 113.872C163.951 114.313 165.021 114.57 166.112 114.632C167.722 114.726 169.326 114.359 170.736 113.576C171.536 113.136 172.288 112.536 173.136 111.976C174.008 111.342 175.031 110.947 176.104 110.832C177.173 110.787 178.239 110.981 179.224 111.4C180.176 111.76 181.056 112.2 181.904 112.512C182.692 112.851 183.529 113.064 184.384 113.144C185.119 113.193 185.854 113.052 186.52 112.736C187.471 112.207 188.309 111.494 188.984 110.64C189.222 110.312 189.487 110.004 189.776 109.72Z" fill="#FAFAFA"/>
<path d="M212.431 113.72C211.692 113.556 210.918 113.64 210.231 113.96C209.432 114.343 208.721 114.888 208.143 115.56C207.447 116.32 206.799 117.328 205.863 118.288C205.359 118.828 204.75 119.261 204.073 119.559C203.397 119.857 202.667 120.016 201.927 120.024C200.259 120.005 198.604 119.711 197.031 119.152C195.347 118.532 193.551 118.273 191.759 118.392C190.834 118.532 189.952 118.877 189.175 119.4C188.364 119.95 187.589 120.551 186.855 121.2C186.108 121.865 185.305 122.464 184.455 122.992C183.597 123.481 182.66 123.819 181.687 123.992C179.862 124.276 178.001 124.232 176.191 123.864C174.471 123.56 172.871 123.136 171.391 122.848C170.001 122.55 168.581 122.416 167.159 122.448C165.095 122.483 163.11 123.252 161.559 124.616C161.027 125.15 160.579 125.762 160.231 126.432C160.243 126.382 160.259 126.334 160.279 126.288C160.279 126.2 160.359 126.056 160.447 125.88C160.71 125.371 161.047 124.905 161.447 124.496C163.001 123.042 165.033 122.208 167.159 122.152C168.606 122.101 170.053 122.222 171.471 122.512C172.999 122.784 174.607 123.2 176.271 123.488C178.038 123.836 179.852 123.871 181.631 123.592C182.557 123.423 183.446 123.098 184.263 122.632C185.096 122.119 185.883 121.535 186.615 120.888C187.374 120.222 188.175 119.607 189.015 119.048C189.844 118.497 190.784 118.134 191.767 117.984C193.617 117.861 195.471 118.134 197.207 118.784C198.748 119.343 200.369 119.646 202.007 119.68C202.696 119.646 203.371 119.483 203.999 119.2C204.599 118.918 205.142 118.527 205.599 118.048C206.519 117.136 207.199 116.144 207.919 115.376C208.528 114.69 209.279 114.144 210.119 113.776C210.647 113.543 211.227 113.455 211.799 113.52C212.021 113.547 212.235 113.614 212.431 113.72Z" fill="#FAFAFA"/>
<path d="M229.319 117.656C229.319 117.656 229.031 117.656 228.519 117.8C227.767 118.015 227.085 118.427 226.543 118.992C225.7 119.911 224.952 120.914 224.311 121.984C223.489 123.442 222.404 124.736 221.111 125.8C220.297 126.379 219.333 126.713 218.335 126.76C217.272 126.791 216.211 126.667 215.183 126.392C214.119 126.152 213.039 125.84 211.911 125.688C210.763 125.504 209.587 125.605 208.487 125.984C206.207 126.784 204.287 128.528 202.263 130.232C201.227 131.123 200.095 131.896 198.887 132.536C197.628 133.227 196.202 133.554 194.767 133.48C193.35 133.281 192.006 132.731 190.855 131.88C189.786 131.091 188.598 130.478 187.335 130.064C186.72 129.914 186.081 129.886 185.455 129.984C184.842 130.102 184.251 130.315 183.703 130.616C182.635 131.233 181.639 131.968 180.735 132.808C179.86 133.623 178.93 134.377 177.951 135.064C177.008 135.707 175.997 136.244 174.935 136.664C172.616 137.586 170.108 137.931 167.626 137.669C165.144 137.407 162.763 136.546 160.687 135.16C159.78 134.585 158.956 133.888 158.239 133.088C158.239 133.088 158.463 133.272 158.871 133.624C159.474 134.133 160.11 134.601 160.775 135.024C162.839 136.348 165.19 137.159 167.631 137.388C170.072 137.618 172.533 137.26 174.807 136.344C175.84 135.94 176.825 135.422 177.743 134.8C178.706 134.115 179.623 133.367 180.487 132.56C181.408 131.694 182.425 130.937 183.519 130.304C184.102 129.978 184.734 129.751 185.391 129.632C186.07 129.519 186.764 129.546 187.431 129.712C188.739 130.131 189.971 130.758 191.079 131.568C192.176 132.377 193.457 132.899 194.807 133.088C196.164 133.154 197.512 132.844 198.703 132.192C199.881 131.566 200.987 130.812 201.999 129.944C204.015 128.256 205.999 126.456 208.359 125.64C209.521 125.254 210.758 125.152 211.967 125.344C213.127 125.512 214.207 125.832 215.263 126.08C216.255 126.357 217.282 126.486 218.311 126.464C219.254 126.426 220.167 126.121 220.943 125.584C222.225 124.552 223.309 123.298 224.143 121.88C224.784 120.801 225.541 119.795 226.399 118.88C226.969 118.307 227.686 117.903 228.471 117.712C228.75 117.653 229.035 117.634 229.319 117.656Z" fill="#FAFAFA"/>
<path d="M225.199 136.28C225.049 136.278 224.901 136.25 224.759 136.2L223.519 135.912C222.014 135.517 220.455 135.371 218.903 135.48C217.85 135.578 216.838 135.939 215.959 136.528C214.971 137.253 214.085 138.109 213.327 139.072C212.478 140.173 211.482 141.153 210.367 141.984C209.094 142.804 207.624 143.268 206.111 143.328C202.999 143.512 200.191 142.528 197.703 141.784C195.529 141.012 193.224 140.675 190.919 140.792C189.367 140.908 187.88 141.463 186.631 142.392C186.194 142.755 185.784 143.151 185.407 143.576C185.691 143.07 186.072 142.624 186.527 142.264C187.778 141.268 189.294 140.662 190.887 140.52C193.232 140.359 195.586 140.672 197.807 141.44C200.319 142.136 203.087 143.12 206.079 142.936C207.523 142.88 208.925 142.441 210.143 141.664C211.23 140.859 212.204 139.912 213.039 138.848C213.825 137.865 214.743 136.995 215.767 136.264C216.7 135.656 217.77 135.29 218.879 135.2C220.46 135.117 222.044 135.309 223.559 135.768L224.783 136.136C224.925 136.175 225.064 136.223 225.199 136.28Z" fill="#FAFAFA"/>
<path opacity="0.3" d="M229.702 116.673L207.523 112.81L201.662 146.464L223.84 150.326L229.702 116.673Z" fill="black"/>
<path d="M181.416 142.872C181.296 142.872 182.424 135.304 183.936 126.008C185.448 116.712 186.752 109.208 186.864 109.208C186.976 109.208 185.848 116.776 184.344 126.072C182.84 135.368 181.528 142.888 181.416 142.872Z" fill="#263238"/>
<path d="M213.911 148.736C213.799 148.736 215.023 141.136 216.647 131.808C218.271 122.48 219.679 114.92 219.799 114.944C219.919 114.968 218.687 122.544 217.055 131.872C215.423 141.2 214.023 148.752 213.911 148.736Z" fill="#263238"/>
<path d="M226.296 136.232C226.296 136.344 211.208 133.832 192.656 130.584C174.104 127.336 159.056 124.64 159.056 124.528C159.056 124.416 174.136 126.928 192.704 130.176C211.272 133.424 226.312 136.12 226.296 136.232Z" fill="#263238"/>
<path d="M186.624 109.24C186.406 109.304 186.177 109.314 185.954 109.271C185.731 109.228 185.522 109.132 185.344 108.992C184.418 108.219 183.638 107.287 183.04 106.24C182.184 105 181.2 103.496 180.184 101.776C179.672 100.912 179.16 100.008 178.64 99.04C178.348 98.5346 178.181 97.9669 178.152 97.384C178.143 97.0622 178.221 96.7441 178.378 96.4627C178.534 96.1813 178.762 95.9469 179.04 95.784C179.344 95.6297 179.696 95.5954 180.024 95.688C180.317 95.777 180.589 95.9239 180.824 96.12C181.253 96.4874 181.651 96.8887 182.016 97.32C183.864 99.4715 185.228 101.995 186.016 104.72C186.353 105.869 186.575 107.048 186.68 108.24C186.72 108.664 186.728 108.992 186.728 109.216C186.74 109.328 186.74 109.44 186.728 109.552C186.525 107.948 186.198 106.362 185.752 104.808C185.224 103.138 184.482 101.543 183.544 100.064C182.99 99.1932 182.37 98.3667 181.688 97.592C181.34 97.1814 180.96 96.7988 180.552 96.448C180.379 96.2734 180.16 96.1525 179.92 96.1C179.68 96.0475 179.43 96.0655 179.2 96.152C178.99 96.2823 178.819 96.4655 178.702 96.6831C178.586 96.9008 178.528 97.1452 178.536 97.392C178.561 97.9111 178.712 98.4163 178.976 98.864C179.472 99.816 179.984 100.728 180.48 101.592C181.472 103.312 182.424 104.792 183.248 106.088C183.812 107.122 184.539 108.06 185.4 108.864C185.759 109.114 186.187 109.246 186.624 109.24Z" fill="#263238"/>
<path d="M186.912 108.608C186.971 108.273 187.068 107.946 187.2 107.632C187.51 106.758 187.885 105.908 188.32 105.088C189.346 103.143 190.66 101.363 192.215 99.8079C192.519 99.4586 192.9 99.1847 193.327 99.0079C193.582 98.9039 193.866 98.9015 194.122 99.0012C194.379 99.101 194.587 99.2952 194.703 99.5439C194.859 100.018 194.825 100.534 194.607 100.984C194.427 101.387 194.21 101.773 193.959 102.136C193.514 102.818 193.027 103.472 192.503 104.096C191.617 105.156 190.631 106.128 189.559 107C188.838 107.589 188.073 108.124 187.272 108.6C186.989 108.789 186.686 108.945 186.368 109.064C186.32 108.992 187.6 108.264 189.368 106.784C190.4 105.901 191.351 104.926 192.207 103.872C192.714 103.251 193.184 102.602 193.615 101.928C193.852 101.588 194.055 101.226 194.223 100.848C194.395 100.5 194.429 100.1 194.319 99.7279C194.245 99.5752 194.114 99.4573 193.954 99.3991C193.795 99.3409 193.619 99.3469 193.463 99.4159C193.095 99.5616 192.766 99.7918 192.503 100.088C190.961 101.606 189.641 103.336 188.584 105.224C187.44 107.256 186.984 108.64 186.912 108.608Z" fill="#263238"/>
<path d="M183.737 148.902L152.594 144.364L148.666 171.319L179.809 175.857L183.737 148.902Z" fill="#072F54"/>
<path d="M170.989 147.043L144.865 143.236L140.937 170.2L167.061 174.006L170.989 147.043Z" fill="#072F54"/>
<path d="M155.199 144.736C155.279 144.816 152.583 147.488 149.191 150.688C145.799 153.888 142.967 156.424 142.887 156.344C142.807 156.264 145.503 153.592 148.903 150.384C152.303 147.176 155.079 144.656 155.199 144.736Z" fill="#FAFAFA"/>
<path d="M162.616 145.84C162.696 145.928 157.984 150.776 152.088 156.688C146.192 162.6 141.344 167.32 141.264 167.2C141.184 167.08 145.896 162.264 151.792 156.36C157.688 150.456 162.528 145.76 162.616 145.84Z" fill="#FAFAFA"/>
<path d="M170.296 146.944C170.376 147.024 165.064 152.48 158.432 159.12C151.8 165.76 146.36 171.12 146.272 171.008C146.184 170.896 151.504 165.48 158.136 158.832C164.768 152.184 170.216 146.864 170.296 146.944Z" fill="#FAFAFA"/>
<path d="M177.704 148C177.784 148.08 172.568 153.536 166.048 160.184C159.528 166.832 154.176 172.184 154.096 172.088C154.016 171.992 159.232 166.552 165.752 159.896C172.272 153.24 177.6 147.936 177.704 148Z" fill="#FAFAFA"/>
<path d="M183.2 151.472C183.288 151.552 178.48 156.504 172.472 162.52C166.464 168.536 161.528 173.36 161.44 173.28C161.352 173.2 166.168 168.248 172.176 162.224C178.184 156.2 183.096 151.392 183.2 151.472Z" fill="#FAFAFA"/>
<path d="M181.599 162.2C181.679 162.28 178.871 165.08 175.335 168.448C171.799 171.816 168.895 174.48 168.799 174.4C168.703 174.32 171.519 171.52 175.055 168.144C178.591 164.768 181.543 162.112 181.599 162.2Z" fill="#FAFAFA"/>
<path opacity="0.5" d="M183.737 148.906L170.991 147.048L167.063 174.012L179.808 175.869L183.737 148.906Z" fill="black"/>
<path d="M157.874 144.455L156.4 144.247L152.586 171.222L154.059 171.43L157.874 144.455Z" fill="#263238"/>
<path d="M177.698 148.019L176.875 147.899L172.946 174.862L173.77 174.982L177.698 148.019Z" fill="#263238"/>
<path d="M181.853 161.841L142.983 156.177L142.825 157.262L181.695 162.925L181.853 161.841Z" fill="#263238"/>
<path d="M161.808 144.8C161.565 144.637 161.347 144.44 161.16 144.216C160.614 143.643 160.119 143.025 159.68 142.368C159.018 141.389 158.465 140.34 158.032 139.24C157.77 138.587 157.563 137.912 157.416 137.224C157.325 136.807 157.391 136.372 157.6 136C157.728 135.802 157.92 135.654 158.145 135.583C158.37 135.511 158.613 135.52 158.832 135.608C159.214 135.755 159.555 135.994 159.824 136.304C160.08 136.584 160.328 136.864 160.544 137.152C160.966 137.716 161.338 138.315 161.656 138.944C162.177 140.011 162.528 141.152 162.696 142.328C162.813 143.123 162.832 143.929 162.752 144.728C162.741 145.02 162.684 145.309 162.584 145.584C162.615 144.514 162.556 143.444 162.408 142.384C162.203 141.248 161.834 140.149 161.312 139.12C160.994 138.522 160.63 137.949 160.224 137.408C159.838 136.822 159.313 136.341 158.696 136.008C158.566 135.95 158.42 135.94 158.284 135.98C158.148 136.019 158.03 136.106 157.952 136.224C157.809 136.511 157.767 136.838 157.832 137.152C157.973 137.811 158.165 138.459 158.408 139.088C158.818 140.168 159.33 141.208 159.936 142.192C160.976 143.848 161.864 144.72 161.808 144.8Z" fill="#263238"/>
<path d="M162.496 144.8C162.479 144.531 162.506 144.261 162.576 144C162.705 143.264 162.909 142.543 163.184 141.848C163.596 140.813 164.134 139.832 164.784 138.928C165.169 138.395 165.594 137.892 166.056 137.424C166.303 137.161 166.571 136.917 166.856 136.696C166.96 136.622 167.081 136.578 167.208 136.568C167.283 136.567 167.357 136.583 167.425 136.615C167.493 136.647 167.553 136.694 167.6 136.752C167.72 136.931 167.795 137.137 167.816 137.352C168.024 138.724 167.785 140.126 167.136 141.352C166.615 142.344 165.921 143.235 165.088 143.984C164.536 144.484 163.945 144.939 163.32 145.344C163.102 145.514 162.859 145.649 162.6 145.744C162.56 145.68 163.552 145.056 164.88 143.768C165.66 143.022 166.306 142.148 166.792 141.184C167.386 140.017 167.599 138.694 167.4 137.4C167.39 137.257 167.349 137.118 167.28 136.992C167.24 136.992 167.208 136.944 167.08 136.992C166.828 137.2 166.588 137.422 166.36 137.656C165.911 138.109 165.494 138.593 165.112 139.104C164.471 139.975 163.934 140.917 163.512 141.912C162.728 143.608 162.576 144.8 162.496 144.8Z" fill="#263238"/>
<path d="M162.399 146.2C162.399 146.2 162.583 146.008 162.983 145.728C163.383 145.448 163.975 145.072 164.735 144.656C165.63 144.173 166.554 143.748 167.503 143.384C168.064 143.151 168.645 142.971 169.239 142.848C169.903 142.705 170.593 142.738 171.239 142.944L171.431 143.008L171.375 143.192C171.264 143.523 171.086 143.829 170.852 144.089C170.618 144.349 170.333 144.558 170.015 144.704C169.473 144.978 168.908 145.205 168.327 145.384C167.351 145.698 166.342 145.902 165.319 145.992C164.635 146.047 163.948 146.047 163.263 145.992C163.01 145.998 162.758 145.958 162.519 145.872C162.519 145.8 163.591 145.872 165.287 145.672C166.281 145.543 167.259 145.315 168.207 144.992C168.757 144.808 169.292 144.584 169.807 144.32C170.073 144.197 170.311 144.023 170.509 143.807C170.707 143.592 170.86 143.339 170.959 143.064L171.087 143.312C169.917 143.054 168.694 143.198 167.615 143.72C166.675 144.063 165.754 144.455 164.855 144.896C163.319 145.68 162.399 146.256 162.399 146.2Z" fill="#263238"/>
<path d="M161.431 145.936C161.173 145.934 160.917 145.894 160.671 145.816C159.985 145.65 159.309 145.445 158.647 145.2C157.667 144.836 156.715 144.4 155.799 143.896L154.999 143.44C154.711 143.283 154.442 143.093 154.199 142.872C154.05 142.737 153.942 142.562 153.887 142.368C153.832 142.175 153.832 141.97 153.887 141.776C153.972 141.592 154.103 141.433 154.267 141.314C154.43 141.195 154.622 141.12 154.823 141.096C156.128 140.849 157.477 141.028 158.671 141.608C159.645 142.068 160.474 142.784 161.071 143.68C161.474 144.274 161.762 144.939 161.919 145.64C162.001 145.898 162.025 146.171 161.991 146.44C161.75 145.528 161.358 144.662 160.831 143.88C160.238 143.061 159.445 142.408 158.527 141.984C157.402 141.468 156.145 141.312 154.927 141.536C154.795 141.546 154.668 141.588 154.556 141.659C154.444 141.73 154.352 141.828 154.287 141.944C154.261 142.065 154.267 142.191 154.305 142.309C154.343 142.427 154.411 142.533 154.503 142.616C154.724 142.815 154.965 142.989 155.223 143.136C155.479 143.296 155.746 143.448 156.023 143.592C156.914 144.109 157.839 144.566 158.791 144.96C160.383 145.6 161.455 145.872 161.431 145.936Z" fill="#263238"/>
<path d="M231.867 150.917L193.666 144.551L188.157 177.615L226.358 183.981L231.867 150.917Z" fill="#072F54"/>
<path d="M216.241 148.305L184.194 142.966L178.685 176.03L210.731 181.369L216.241 148.305Z" fill="#072F54"/>
<path d="M196.8 145.08C196.872 145.168 193.48 148.368 189.216 152.224C184.952 156.08 181.44 159.136 181.36 159.048C181.28 158.96 184.68 155.768 188.936 151.912C193.192 148.056 196.736 145 196.8 145.08Z" fill="#FAFAFA"/>
<path d="M205.951 146.632C206.031 146.712 200.095 152.552 192.695 159.672C185.295 166.792 179.231 172.472 179.151 172.408C179.071 172.344 185.007 166.488 192.407 159.368C199.807 152.248 205.871 146.552 205.951 146.632Z" fill="#FAFAFA"/>
<path d="M215.375 148.176C215.455 148.256 208.767 154.824 200.447 162.832C192.127 170.84 185.303 177.232 185.247 177.184C185.191 177.136 191.847 170.536 200.175 162.528C208.503 154.52 215.295 148.096 215.375 148.176Z" fill="#FAFAFA"/>
<path d="M224.463 149.688C224.543 149.776 217.967 156.344 209.783 164.36C201.599 172.376 194.895 178.816 194.815 178.76C194.735 178.704 201.303 172.112 209.495 164.088C217.687 156.064 224.383 149.6 224.463 149.688Z" fill="#FAFAFA"/>
<path d="M231.112 154.08C231.192 154.16 225.144 160.112 217.6 167.36C210.056 174.608 203.872 180.432 203.792 180.352C203.712 180.272 209.76 174.32 217.312 167.064C224.864 159.808 231.032 153.992 231.112 154.08Z" fill="#FAFAFA"/>
<path d="M228.928 167.2C229 167.28 225.472 170.64 221.04 174.696C216.608 178.752 212.944 181.968 212.864 181.896C212.784 181.824 216.32 178.456 220.752 174.4C225.184 170.344 228.848 167.144 228.928 167.2Z" fill="#FAFAFA"/>
<path opacity="0.5" d="M231.865 150.913L216.232 148.308L210.723 181.372L226.356 183.977L231.865 150.913Z" fill="black"/>
<path d="M199.324 145.496L196.822 145.079L191.313 178.143L193.814 178.56L199.324 145.496Z" fill="#263238"/>
<path d="M224.47 149.683L222.442 149.345L216.933 182.409L218.961 182.747L224.47 149.683Z" fill="#263238"/>
<path d="M229.225 166.783L181.546 158.839L181.324 160.172L229.002 168.117L229.225 166.783Z" fill="#263238"/>
<path d="M213.602 181.319L160.484 172.63L159.131 180.904L212.249 189.593L213.602 181.319Z" fill="#072F54"/>
<path opacity="0.3" d="M202.426 179.491L160.487 172.631L159.134 180.905L201.073 187.765L202.426 179.491Z" fill="white"/>
<path d="M165.663 173.472C165.723 173.867 165.653 174.272 165.463 174.624C165.093 175.521 164.403 176.249 163.525 176.664C162.648 177.08 161.648 177.154 160.719 176.872C160.015 176.656 159.671 176.344 159.703 176.304C159.735 176.264 160.119 176.456 160.791 176.592C161.654 176.778 162.555 176.673 163.352 176.294C164.149 175.915 164.799 175.283 165.199 174.496C165.519 173.896 165.599 173.464 165.663 173.472Z" fill="#FAFAFA"/>
<path d="M170.072 182.792C169.986 182.247 169.849 181.712 169.664 181.192C169.429 180.586 169.047 180.048 168.551 179.628C168.056 179.208 167.463 178.918 166.827 178.785C166.191 178.652 165.532 178.681 164.909 178.868C164.287 179.055 163.721 179.394 163.264 179.856C162.892 180.256 162.555 180.687 162.256 181.144C162.341 180.568 162.624 180.039 163.056 179.648C163.53 179.116 164.136 178.719 164.812 178.496C165.489 178.273 166.212 178.231 166.91 178.377C167.607 178.522 168.254 178.848 168.785 179.323C169.316 179.797 169.713 180.403 169.936 181.08C170.174 181.619 170.222 182.222 170.072 182.792Z" fill="#FAFAFA"/>
<path d="M179.863 176.12C179.675 176.701 179.319 177.213 178.839 177.592C178.297 178.102 177.647 178.483 176.938 178.708C176.228 178.932 175.477 178.994 174.74 178.889C174.003 178.784 173.299 178.514 172.681 178.1C172.062 177.685 171.545 177.137 171.167 176.496C170.81 175.999 170.615 175.404 170.607 174.792C170.843 175.322 171.11 175.838 171.407 176.336C171.788 176.907 172.285 177.392 172.865 177.758C173.446 178.125 174.097 178.364 174.777 178.462C175.456 178.559 176.149 178.512 176.809 178.323C177.469 178.135 178.082 177.809 178.607 177.368C179.05 176.977 179.47 176.56 179.863 176.12Z" fill="#FAFAFA"/>
<path d="M184.336 184.744C184.096 184.26 183.828 183.79 183.536 183.336C183.178 182.812 182.711 182.371 182.169 182.041C181.626 181.712 181.019 181.503 180.389 181.427C179.759 181.351 179.12 181.411 178.515 181.602C177.909 181.793 177.352 182.112 176.88 182.536C176.497 182.909 176.136 183.304 175.8 183.72C175.938 183.172 176.246 182.682 176.68 182.32C177.161 181.828 177.749 181.452 178.398 181.221C179.046 180.99 179.739 180.91 180.423 180.988C181.107 181.065 181.765 181.297 182.346 181.666C182.927 182.036 183.416 182.533 183.776 183.12C184.134 183.586 184.331 184.156 184.336 184.744Z" fill="#FAFAFA"/>
<path d="M191.944 177.16C191.993 177.658 191.856 178.156 191.56 178.56C191.254 179.094 190.804 179.532 190.261 179.823C189.719 180.113 189.105 180.245 188.491 180.203C187.876 180.162 187.286 179.948 186.788 179.587C186.289 179.225 185.903 178.731 185.672 178.16C185.431 177.717 185.366 177.201 185.488 176.712C185.602 177.164 185.755 177.606 185.944 178.032C186.178 178.528 186.54 178.953 186.992 179.263C187.445 179.572 187.973 179.755 188.52 179.793C189.067 179.83 189.614 179.721 190.105 179.476C190.596 179.231 191.013 178.86 191.312 178.4C191.554 178.004 191.766 177.589 191.944 177.16Z" fill="#FAFAFA"/>
<path d="M196.071 187.504C196.581 186.979 196.964 186.344 197.191 185.648C197.396 184.895 197.354 184.096 197.071 183.368C196.882 182.938 196.604 182.553 196.255 182.239C195.906 181.924 195.495 181.688 195.047 181.544C194.604 181.385 194.131 181.324 193.662 181.364C193.193 181.404 192.737 181.544 192.327 181.776C191.659 182.18 191.141 182.793 190.855 183.52C190.611 184.212 190.532 184.952 190.623 185.68C190.513 185.503 190.444 185.304 190.423 185.096C190.34 184.531 190.395 183.955 190.583 183.416C190.859 182.604 191.404 181.91 192.127 181.448C192.585 181.187 193.094 181.025 193.618 180.974C194.143 180.923 194.673 180.983 195.173 181.15C195.673 181.318 196.132 181.589 196.52 181.947C196.908 182.304 197.215 182.739 197.423 183.224C197.726 184.031 197.743 184.918 197.471 185.736C197.296 186.276 196.991 186.765 196.583 187.16C196.444 187.315 196.268 187.434 196.071 187.504Z" fill="#FAFAFA"/>
<path d="M208.096 180.296C208.096 180.296 208.232 180.416 208.304 180.712C208.394 181.138 208.343 181.581 208.16 181.976C207.888 182.566 207.406 183.034 206.808 183.288C206.085 183.578 205.296 183.664 204.528 183.536C203.764 183.444 203.03 183.188 202.376 182.784C201.829 182.445 201.401 181.945 201.152 181.352C201.013 181.092 200.94 180.802 200.94 180.508C200.94 180.214 201.013 179.924 201.152 179.664C201.101 180.211 201.192 180.762 201.416 181.264C201.669 181.777 202.07 182.204 202.568 182.488C203.186 182.842 203.869 183.067 204.576 183.152C205.271 183.27 205.984 183.206 206.648 182.968C207.18 182.765 207.621 182.375 207.888 181.872C208.134 181.385 208.207 180.83 208.096 180.296Z" fill="#FAFAFA"/>
<path d="M212.68 186.248C212.64 186.296 212.28 186.024 211.616 185.784C210.768 185.471 209.841 185.442 208.975 185.702C208.109 185.962 207.351 186.496 206.816 187.224C206.392 187.784 206.24 188.208 206.176 188.184C206.112 188.16 206.176 187.704 206.576 187.056C207.101 186.204 207.921 185.575 208.88 185.288C209.838 185.013 210.863 185.092 211.768 185.512C212.416 185.84 212.712 186.216 212.68 186.248Z" fill="#FAFAFA"/>
<path opacity="0.4" d="M213.604 181.326L202.425 179.497L201.071 187.771L212.251 189.6L213.604 181.326Z" fill="black"/>
<path d="M179.768 184.304C179.782 182.959 179.932 181.619 180.216 180.304C180.363 178.945 180.65 177.605 181.072 176.304C181.057 177.649 180.907 178.989 180.624 180.304C180.477 181.663 180.19 183.004 179.768 184.304Z" fill="#263238"/>
<path d="M207.535 188.416C207.54 187.071 207.688 185.73 207.975 184.416C208.11 183.105 208.386 181.812 208.799 180.56C208.789 181.905 208.642 183.245 208.359 184.56C208.218 185.87 207.941 187.162 207.535 188.416Z" fill="#263238"/>
<path d="M212.624 186.592C212.624 186.704 200.696 184.848 186.024 182.448C171.352 180.048 159.464 178.016 159.48 177.896C159.496 177.776 171.408 179.64 186.088 182.04C200.768 184.44 212.648 186.472 212.624 186.592Z" fill="#263238"/>
<path d="M181.968 176.336C181.904 176.249 181.855 176.151 181.824 176.048C181.709 175.76 181.619 175.463 181.552 175.16C181.294 174.044 181.294 172.884 181.552 171.768C181.634 171.395 181.743 171.029 181.88 170.672C181.95 170.469 182.049 170.277 182.176 170.104C182.252 169.995 182.356 169.909 182.477 169.854C182.598 169.799 182.732 169.778 182.864 169.792C182.995 169.817 183.119 169.873 183.224 169.955C183.33 170.037 183.415 170.143 183.472 170.264C183.589 170.477 183.665 170.711 183.696 170.952C183.766 171.413 183.804 171.878 183.808 172.344C183.828 173.357 183.676 174.366 183.36 175.328C183.251 175.601 183.085 175.846 182.872 176.048C182.755 176.155 182.617 176.237 182.467 176.288C182.317 176.338 182.158 176.358 182 176.344C181.424 176.215 180.906 175.9 180.528 175.448C179.061 173.989 177.83 172.31 176.88 170.472C176.755 170.243 176.684 169.989 176.672 169.728C176.665 169.585 176.694 169.442 176.755 169.312C176.817 169.183 176.909 169.07 177.024 168.984C177.143 168.907 177.282 168.866 177.424 168.866C177.566 168.866 177.705 168.907 177.824 168.984C178.024 169.11 178.197 169.273 178.336 169.464C178.828 170.073 179.282 170.711 179.696 171.376C180.299 172.335 180.808 173.351 181.216 174.408C181.387 174.786 181.511 175.183 181.584 175.592C181.387 175.227 181.214 174.85 181.064 174.464C180.608 173.448 180.073 172.469 179.464 171.536C179.041 170.892 178.581 170.272 178.088 169.68C177.848 169.376 177.48 169.088 177.24 169.28C177 169.472 177 169.912 177.24 170.296C178.188 172.087 179.402 173.724 180.84 175.152C181.141 175.546 181.567 175.828 182.048 175.952C182.266 175.946 182.477 175.869 182.648 175.734C182.82 175.598 182.943 175.411 183 175.2C183.302 174.287 183.451 173.33 183.44 172.368C183.439 171.918 183.41 171.47 183.352 171.024C183.304 170.632 183.104 170.224 182.832 170.16C182.56 170.096 182.32 170.472 182.2 170.816C182.055 171.152 181.94 171.5 181.856 171.856C181.585 172.934 181.541 174.056 181.728 175.152C181.84 175.912 182.008 176.32 181.968 176.336Z" fill="#263238"/>
<path d="M320.232 278.336C313.832 268.608 314.8 254.704 322.4 245.904C324.76 243.176 328.056 240.8 331.648 241.104C335.24 241.408 338.296 244.576 339.416 248.104C340.536 251.632 340.144 255.432 339.488 259.072C338.568 264.16 337.024 269.368 333.496 273.152C329.968 276.936 324.8 280.8 320.232 278.336Z" fill="#2D56B3"/>
<path d="M323.752 325.176C322.611 322.345 322.388 319.227 323.116 316.262C323.844 313.298 325.485 310.637 327.808 308.656C329.272 307.464 331.184 306.544 333.008 307.056C334.832 307.568 336.12 309.456 336.376 311.368C336.518 313.303 336.188 315.244 335.416 317.024C334.48 319.56 333.216 322.104 331.056 323.736C328.896 325.368 325.864 326.896 323.752 325.208" fill="#072F54"/>
<path d="M308.408 321.832C309.196 317.486 308.596 313.003 306.694 309.017C304.791 305.031 301.683 301.745 297.808 299.624C295.408 298.368 292.4 297.616 289.952 298.824C287.504 300.032 286.248 303.128 286.448 305.92C286.648 308.712 287.992 311.288 289.472 313.656C291.544 316.984 294.088 320.216 297.632 321.88C301.176 323.544 305.912 324.832 308.408 321.816" fill="#072F54"/>
<path d="M309.512 298.504C312.56 288.672 307.392 276.76 298.784 271.12C296.112 269.368 292.736 268.152 289.744 269.288C286.752 270.424 284.944 273.856 284.84 277.128C284.736 280.4 286 283.528 287.448 286.48C289.472 290.592 292.048 294.648 295.976 297.008C299.904 299.368 306.256 301.72 309.512 298.504Z" fill="#2D56B3"/>
<path d="M315.632 346.544C315.578 346.392 315.543 346.233 315.528 346.072C315.48 345.712 315.408 345.272 315.328 344.704C315.288 344.4 315.24 344.064 315.192 343.712C315.144 343.36 315.04 342.96 314.96 342.544C314.8 341.704 314.64 340.744 314.36 339.704C314.24 339.184 314.104 338.632 313.968 338.064C313.832 337.496 313.632 336.92 313.456 336.312C313.128 335.096 312.656 333.832 312.184 332.488C311.096 329.607 309.83 326.796 308.392 324.072C306.916 321.369 305.276 318.759 303.48 316.256C302.608 315.136 301.824 314.032 300.992 313.056L299.808 311.656L298.664 310.424C297.952 309.624 297.24 308.952 296.632 308.352L295.784 307.552L295.032 306.888L294 305.96C293.876 305.858 293.763 305.742 293.664 305.616C293.803 305.697 293.935 305.79 294.056 305.896L295.136 306.768L295.936 307.408L296.808 308.208C297.44 308.792 298.16 309.448 298.896 310.24L300.064 311.464L301.272 312.856C302.12 313.8 302.92 314.904 303.8 316.056C305.631 318.556 307.293 321.175 308.776 323.896C310.22 326.637 311.484 329.47 312.56 332.376C313.008 333.736 313.488 335.008 313.8 336.24C313.968 336.848 314.136 337.44 314.296 338.008C314.456 338.576 314.544 339.136 314.664 339.664C314.928 340.712 315.072 341.68 315.208 342.528C315.277 342.944 315.341 343.336 315.4 343.704C315.4 344.064 315.472 344.4 315.504 344.704C315.552 345.272 315.6 345.728 315.632 346.088C315.65 346.239 315.65 346.393 315.632 346.544Z" fill="#263238"/>
<path d="M315.408 348.312C315.397 348.248 315.397 348.184 315.408 348.12C315.408 347.968 315.408 347.776 315.448 347.552C315.496 347.016 315.568 346.288 315.648 345.368C315.696 344.888 315.752 344.36 315.808 343.768C315.864 343.176 315.864 342.56 315.896 341.88C315.952 340.536 316.08 339 316.032 337.296C316.032 336.44 316.032 335.552 316.032 334.624C316.032 333.696 315.936 332.736 315.888 331.736C315.824 329.736 315.552 327.616 315.312 325.384C314.657 320.551 313.649 315.773 312.296 311.088C310.87 306.434 309.111 301.889 307.032 297.488C306.016 295.488 305.088 293.56 304.048 291.848C303.544 290.984 303.096 290.128 302.6 289.344L301.152 287.104C300.264 285.648 299.32 284.432 298.544 283.328C298.144 282.784 297.792 282.264 297.44 281.8L296.448 280.568C295.872 279.84 295.424 279.264 295.088 278.848L294.744 278.392C294.7 278.341 294.662 278.285 294.632 278.224C294.686 278.262 294.735 278.308 294.776 278.36L295.152 278.792L296.576 280.464L297.592 281.68C297.952 282.136 298.32 282.648 298.728 283.192C299.528 284.28 300.496 285.488 301.4 286.936L302.872 289.176C303.376 289.976 303.84 290.816 304.352 291.672C305.4 293.384 306.344 295.312 307.376 297.328C311.681 306.15 314.489 315.625 315.688 325.368C315.92 327.608 316.184 329.744 316.232 331.768C316.272 332.768 316.352 333.736 316.352 334.664C316.352 335.592 316.352 336.488 316.352 337.344C316.352 339.056 316.232 340.592 316.152 341.944C316.112 342.624 316.08 343.248 316.024 343.832C315.968 344.416 315.896 344.928 315.832 345.432C315.72 346.352 315.624 347.032 315.552 347.608C315.552 347.832 315.496 348.024 315.472 348.168C315.455 348.218 315.433 348.266 315.408 348.312Z" fill="#263238"/>
<path d="M332 252.856C332 252.856 332 252.92 331.92 253.04C331.84 253.16 331.752 253.344 331.648 253.552C331.376 254.024 331.016 254.672 330.56 255.488C330.32 255.912 330.04 256.368 329.76 256.896L328.904 258.608L327.928 260.568C327.592 261.272 327.28 262.032 326.928 262.824C326.576 263.616 326.2 264.424 325.848 265.304C325.496 266.184 325.16 267.104 324.792 268.048C324.616 268.52 324.424 269 324.24 269.488C324.056 269.976 323.904 270.496 323.728 271.008C323.384 272.032 323.024 273.08 322.664 274.16C321.312 278.528 320.04 283.384 318.96 288.56C317.88 293.736 317.176 298.696 316.64 303.232C316.104 307.768 315.84 311.872 315.736 315.328C315.648 317.048 315.632 318.608 315.624 319.984C315.616 321.36 315.624 322.536 315.624 323.504C315.624 324.472 315.624 325.184 315.624 325.728V326.312C315.631 326.376 315.631 326.44 315.624 326.504C315.616 326.44 315.616 326.376 315.624 326.312C315.624 326.152 315.624 325.968 315.584 325.736C315.584 325.192 315.528 324.448 315.48 323.504C315.432 322.56 315.4 321.36 315.4 319.984C315.4 318.608 315.4 317.048 315.448 315.312C315.512 311.856 315.824 307.744 316.248 303.184C316.672 298.624 317.496 293.656 318.544 288.48C319.592 283.304 320.944 278.44 322.288 274.08C322.664 273 323.024 271.944 323.376 270.88L323.896 269.368L324.464 267.92C324.843 266.976 325.203 266.064 325.544 265.184C325.904 264.312 326.296 263.496 326.648 262.704C327 261.912 327.336 261.16 327.68 260.456C328.024 259.752 328.376 259.112 328.688 258.496L329.6 256.8C329.88 256.28 330.168 255.832 330.4 255.408C330.888 254.608 331.272 253.968 331.56 253.504L331.864 253.016C331.901 252.956 331.947 252.902 332 252.856Z" fill="#263238"/>
<path d="M329.807 312.568C329.611 312.979 329.384 313.375 329.127 313.752C328.663 314.496 328.023 315.592 327.279 316.952C326.536 318.312 325.68 320.008 324.88 321.904C324.08 323.8 323.28 325.904 322.544 328.216C321.808 330.528 321.32 332.712 320.944 334.744C320.568 336.776 320.296 338.632 320.144 340.192C319.992 341.752 319.896 343.016 319.864 343.896C319.857 344.351 319.82 344.806 319.752 345.256C319.694 344.802 319.675 344.345 319.696 343.888C319.696 343.008 319.696 341.736 319.856 340.16C320.016 338.584 320.208 336.728 320.568 334.672C320.979 332.449 321.513 330.251 322.168 328.088C322.854 325.932 323.656 323.815 324.567 321.744C325.431 319.848 326.279 318.176 327.071 316.816C327.863 315.456 328.543 314.368 329.047 313.616C329.275 313.248 329.529 312.898 329.807 312.568Z" fill="#263238"/>
<path d="M303.136 342.168H331.08L327.704 370.712H306.616L303.136 342.168Z" fill="#455A64"/>
<path d="M304.152 367.632L306.528 370.712H327.704L330.144 367.728L304.152 367.632Z" fill="#263238"/>
<path d="M329.992 350.56C329.992 350.68 324.192 350.768 317.04 350.768C309.888 350.768 304.088 350.68 304.088 350.56C304.088 350.44 309.888 350.352 317.04 350.352C324.192 350.352 329.992 350.448 329.992 350.56Z" fill="#FAFAFA"/>
<path d="M329.992 352.464C329.992 352.576 324.192 352.672 317.04 352.672C309.888 352.672 304.088 352.576 304.088 352.464C304.088 352.352 309.888 352.256 317.04 352.256C324.192 352.256 329.992 352.344 329.992 352.464Z" fill="#FAFAFA"/>
<path d="M329.64 354.304C329.64 354.416 324.04 354.512 317.144 354.512C310.248 354.512 304.648 354.416 304.648 354.304C304.648 354.192 310.248 354.096 317.144 354.096C324.04 354.096 329.64 354.184 329.64 354.304Z" fill="#FAFAFA"/>
</svg>
