<svg width="28" height="30" viewBox="0 0 28 30" fill="currentColor"
    xmlns="http://www.w3.org/2000/svg">
    <path d="M15.3329 2.99998V4.33331H12.6662V2.99998H15.3329ZM13.9995 12.48L21.1729 14.84L24.3595 15.88L22.8662 21.1733C22.1462 20.7733 21.6129 20.2266 21.3462 19.92L19.3329 17.6133L17.3195 19.9066C16.8662 20.44 15.6129 21.6666 13.9995 21.6666C12.3862 21.6666 11.1329 20.44 10.6795 19.9066L8.66619 17.6133L6.65286 19.9066C6.38619 20.2133 5.85286 20.7466 5.13286 21.1466L3.62619 15.8666L6.82619 14.8133L13.9995 12.48ZM17.9995 0.333313H9.99953V4.33331H5.99953C4.53286 4.33331 3.33286 5.53331 3.33286 6.99998V13.16L1.61286 13.72C1.26619 13.8266 0.972859 14.0666 0.812859 14.3866C0.652859 14.7066 0.612859 15.08 0.732859 15.4266L3.26619 24.3333H3.33286C5.46619 24.3333 7.35953 23.16 8.66619 21.6666C9.97286 23.16 11.8662 24.3333 13.9995 24.3333C16.1329 24.3333 18.0262 23.16 19.3329 21.6666C20.6395 23.16 22.5329 24.3333 24.6662 24.3333H24.7329L27.2529 15.4266C27.3595 15.08 27.3329 14.7066 27.1729 14.3866C27.0129 14.0666 26.7195 13.8266 26.3729 13.72L24.6662 13.16V6.99998C24.6662 5.53331 23.4662 4.33331 21.9995 4.33331H17.9995V0.333313ZM5.99953 12.2933V6.99998H21.9995V12.2933L13.9995 9.66665L5.99953 12.2933ZM19.3329 25.24C17.7062 26.3733 15.8529 26.9466 13.9995 26.9466C12.1462 26.9466 10.2929 26.3733 8.66619 25.24C7.03953 26.3733 5.18619 27 3.33286 27H0.666193V29.6666H3.33286C5.17286 29.6666 6.98619 29.2 8.66619 28.3466C10.3462 29.2 12.1729 29.64 13.9995 29.64C15.8262 29.64 17.6529 29.2133 19.3329 28.3466C21.0129 29.2133 22.8262 29.6666 24.6662 29.6666H27.3329V27H24.6662C22.8129 27 20.9595 26.3733 19.3329 25.24Z" fill="#989898"/>
</svg>
