<svg width="28" height="28" viewBox="0 0 28 28" fill="currentColor"
    xmlns="http://www.w3.org/2000/svg">
    <path d="M13.8179 25.2724L9.4165 26.3728V25.758L12.3857 23.9765L12.7498 23.758V23.3334V16V14.9977L11.7882 15.2805L1.4165 18.331V17.0956L12.3801 10.6465L12.7498 10.429V10V2.66669C12.7498 1.97423 13.3074 1.41669 13.9998 1.41669C14.6923 1.41669 15.2498 1.97423 15.2498 2.66669V10V10.429L15.6196 10.6465L26.5832 17.0956V18.331L16.2115 15.2805L15.2498 14.9977V16V23.3334V23.758L15.614 23.9765L18.5832 25.758V26.3728L14.1817 25.2724L13.9998 25.2269L13.8179 25.2724Z" stroke="#989898" stroke-width="1.5"/>
</svg>
