<svg width="30" height="30" viewBox="0 0 30 30" fill="none" xmlns="http://www.w3.org/2000/svg">
<path d="M21.6665 1.6665H8.33317C4.65127 1.6665 1.6665 4.65127 1.6665 8.33317V21.6665C1.6665 25.3484 4.65127 28.3332 8.33317 28.3332H21.6665C25.3484 28.3332 28.3332 25.3484 28.3332 21.6665V8.33317C28.3332 4.65127 25.3484 1.6665 21.6665 1.6665Z" stroke="#072F54" stroke-width="2" stroke-linecap="round" stroke-linejoin="round"/>
<path d="M20.3331 14.1599C20.4977 15.2696 20.3081 16.4029 19.7914 17.3986C19.2748 18.3943 18.4573 19.2018 17.4553 19.7061C16.4532 20.2105 15.3177 20.386 14.2102 20.2078C13.1026 20.0296 12.0795 19.5067 11.2862 18.7135C10.493 17.9202 9.97008 16.8971 9.79186 15.7895C9.61364 14.682 9.78919 13.5464 10.2935 12.5444C10.7979 11.5424 11.6054 10.7249 12.6011 10.2082C13.5968 9.69157 14.7301 9.50203 15.8398 9.66658C16.9717 9.83443 18.0196 10.3619 18.8287 11.171C19.6378 11.9801 20.1653 13.028 20.3331 14.1599Z" stroke="#072F54" stroke-width="2" stroke-linecap="round" stroke-linejoin="round"/>
<path d="M22.3335 7.6665H22.3468" stroke="#072F54" stroke-width="2" stroke-linecap="round" stroke-linejoin="round"/>
</svg>
