<svg width="28" height="24" viewBox="0 0 28 24" fill="currentColor"
    xmlns="http://www.w3.org/2000/svg">
    <path d="M25.4263 10.2133C25.2397 9.67998 24.733 9.33331 24.133 9.33331H14.5463C13.933 9.33331 13.4397 9.67998 13.2397 10.2133L11.333 15.6933L11.3463 23.04C11.3463 23.5466 11.7597 24 12.2663 24H13.093C13.5997 24 13.9997 23.4933 13.9997 22.9866V21.3333H24.6663V22.9866C24.6663 23.4933 25.0797 24 25.5863 24H26.3997C26.9063 24 27.3197 23.5466 27.3197 23.04L27.333 21.2133V15.6933L25.4263 10.2133ZM14.5463 10.6666H24.133L25.5063 14.6666H13.173L14.5463 10.6666ZM13.9997 18.6666C13.2663 18.6666 12.6663 18.0666 12.6663 17.3333C12.6663 16.6 13.2663 16 13.9997 16C14.733 16 15.333 16.6 15.333 17.3333C15.333 18.0666 14.733 18.6666 13.9997 18.6666ZM24.6663 18.6666C23.933 18.6666 23.333 18.0666 23.333 17.3333C23.333 16.6 23.933 16 24.6663 16C25.3997 16 25.9997 16.6 25.9997 17.3333C25.9997 18.0666 25.3997 18.6666 24.6663 18.6666Z" fill="#989898"/>
    <path d="M16.6665 8H17.9998V0H7.33317V6.66667H0.666504V24H1.99984V8H8.6665V1.33333H16.6665V8Z" fill="#989898"/>
    <path d="M7.33317 10.6667H4.6665V13.3334H7.33317V10.6667Z" fill="#989898"/>
    <path d="M13.9997 2.66669H11.333V5.33335H13.9997V2.66669Z" fill="#989898"/>
    <path d="M7.33317 16H4.6665V18.6667H7.33317V16Z" fill="#989898"/>
    <path d="M7.33317 21.3333H4.6665V24H7.33317V21.3333Z" fill="#989898"/>
</svg>
