<svg width="24" height="24" viewBox="0 0 24 24" fill="currentColor"
    xmlns="http://www.w3.org/2000/svg">
    <path d="M18.1667 10.6667V11.1667H18.6667H23.5V23.5H13.8333V18.6667V18.1667H13.3333H10.6667H10.1667V18.6667V23.5H0.5V5.83333H5.33333H5.83333V5.33333V0.5H18.1667V10.6667ZM5.33333 21.8333H5.83333V21.3333V18.6667V18.1667H5.33333H2.66667H2.16667V18.6667V21.3333V21.8333H2.66667H5.33333ZM5.33333 16.5H5.83333V16V13.3333V12.8333H5.33333H2.66667H2.16667V13.3333V16V16.5H2.66667H5.33333ZM5.33333 11.1667H5.83333V10.6667V8V7.5H5.33333H2.66667H2.16667V8V10.6667V11.1667H2.66667H5.33333ZM10.6667 16.5H11.1667V16V13.3333V12.8333H10.6667H8H7.5V13.3333V16V16.5H8H10.6667ZM10.6667 11.1667H11.1667V10.6667V8V7.5H10.6667H8H7.5V8V10.6667V11.1667H8H10.6667ZM10.6667 5.83333H11.1667V5.33333V2.66667V2.16667H10.6667H8H7.5V2.66667V5.33333V5.83333H8H10.6667ZM16 16.5H16.5V16V13.3333V12.8333H16H13.3333H12.8333V13.3333V16V16.5H13.3333H16ZM16 11.1667H16.5V10.6667V8V7.5H16H13.3333H12.8333V8V10.6667V11.1667H13.3333H16ZM16 5.83333H16.5V5.33333V2.66667V2.16667H16H13.3333H12.8333V2.66667V5.33333V5.83333H13.3333H16ZM21.3333 21.8333H21.8333V21.3333V18.6667V18.1667H21.3333H18.6667H18.1667V18.6667V21.3333V21.8333H18.6667H21.3333ZM21.3333 16.5H21.8333V16V13.3333V12.8333H21.3333H18.6667H18.1667V13.3333V16V16.5H18.6667H21.3333Z" fill="#072F54" stroke="#072F54"/>
</svg>
