<svg width="20" height="30" viewBox="0 0 20 30" fill="currentColor"
    xmlns="http://www.w3.org/2000/svg">
    <path d="M16.667 4.33331H3.33366V2.99998H16.667V4.33331ZM16.667 27H3.33366V25.6666H16.667V27ZM16.667 0.333313H3.33366C1.86699 0.333313 0.666992 1.53331 0.666992 2.99998V27C0.666992 28.4666 1.86699 29.6666 3.33366 29.6666H16.667C18.1337 29.6666 19.3337 28.4666 19.3337 27V2.99998C19.3337 1.53331 18.1337 0.333313 16.667 0.333313ZM3.33366 6.99998H16.667V23H3.33366V6.99998ZM15.3337 13.6666V11.1866C15.3337 10.3466 14.7337 9.66665 14.0003 9.66665H6.00033C5.26699 9.66665 4.66699 10.3466 4.66699 11.1866V13.8C5.40033 13.8 6.00033 14.4 6.00033 15.1333C6.00033 15.8666 5.40033 16.4666 4.66699 16.4666V18.8133C4.66699 19.6533 5.26699 20.3333 6.00033 20.3333H14.0003C14.7337 20.3333 15.3337 19.6533 15.3337 18.8133V16.3333C14.6003 16.3333 14.0003 15.7333 14.0003 15C14.0003 14.2666 14.6003 13.6666 15.3337 13.6666ZM10.667 18.3333H9.33366V17H10.667V18.3333ZM10.667 15.6666H9.33366V14.3333H10.667V15.6666ZM10.667 13H9.33366V11.6666H10.667V13Z" fill="#989898"/>
</svg>
