<svg width="32" height="27" viewBox="0 0 32 27" fill="none" xmlns="http://www.w3.org/2000/svg">
<path d="M30.6668 2.00022C29.39 2.90086 27.9763 3.5897 26.4802 4.04022C25.6771 3.1169 24.6099 2.46248 23.4229 2.16546C22.2358 1.86844 20.9862 1.94315 19.8429 2.3795C18.6997 2.81584 17.7181 3.59276 17.0308 4.60518C16.3435 5.6176 15.9838 6.81667 16.0002 8.04022V9.37356C13.657 9.43431 11.3352 8.91464 9.24151 7.86082C7.14782 6.807 5.34725 5.25174 4.00016 3.33356C4.00016 3.33356 -1.33317 15.3336 10.6668 20.6669C7.92087 22.5308 4.64971 23.4655 1.3335 23.3336C13.3335 30.0002 28.0002 23.3336 28.0002 8.00022C27.9989 7.62883 27.9632 7.25835 27.8935 6.89356C29.2543 5.55155 30.2146 3.85717 30.6668 2.00022V2.00022Z" stroke="#072F54" stroke-width="2" stroke-linecap="round" stroke-linejoin="round"/>
</svg>
